<svg width="30" height="27" viewBox="0 0 30 27" fill="none" xmlns="http://www.w3.org/2000/svg">
<path d="M9.59092 7.89411C9.74493 7.72581 9.90231 7.58001 10.1011 7.39591C10.1012 7.3958 10.1013 7.3957 10.1014 7.39559C10.1298 7.36929 10.1591 7.34222 10.1893 7.31417C10.4326 7.08832 10.7462 6.79265 11.1983 6.32755C11.6977 5.81365 12.1344 5.4426 12.419 5.23255C12.4721 5.19337 12.5225 5.14871 12.6417 5.02855C12.6539 5.01623 12.6668 5.0032 12.6803 4.98939L12.6661 5.91499C12.6003 5.83381 12.5143 5.72935 12.3983 5.58835C12.3251 5.49946 12.24 5.39604 12.1404 5.27479C11.811 4.87344 11.2754 4.26113 10.7818 3.69697C10.4822 3.35456 10.1981 3.02982 9.98502 2.78076C9.67343 2.41652 9.38022 2.05861 9.06153 1.66948C8.90451 1.47776 8.74129 1.27844 8.56662 1.06707L9.49391 1.08153C9.33041 1.25098 9.15904 1.42982 8.97736 1.6217C8.67561 1.94036 8.34935 2.21944 8.01401 2.49958C7.97134 2.53523 7.92845 2.571 7.88549 2.60679C7.58917 2.85362 7.2862 3.10589 6.97796 3.39656C6.42852 3.91468 6.03717 4.37153 5.60385 4.87738C5.43438 5.07521 5.25847 5.28059 5.06415 5.50005C4.75685 5.84713 4.30392 6.3358 3.84858 6.82597C3.80979 6.86772 3.771 6.90958 3.73226 6.95127C3.73206 6.95149 3.73187 6.95169 3.73168 6.95191C3.31483 7.40056 2.9057 7.84089 2.61079 8.16879C2.14216 8.68983 1.97829 8.89736 1.84166 9.07047C1.7903 9.13555 1.74279 9.19583 1.68434 9.26602C1.47383 9.51883 1.13543 9.88146 0.792416 10.2491C0.791116 10.2505 0.789814 10.2519 0.788514 10.2533C0.73159 10.3143 0.644424 10.3256 0.593866 10.2784C0.54331 10.2313 0.548456 10.1436 0.605385 10.0826C0.787077 9.88784 0.964359 9.69783 1.12121 9.52596C1.08571 9.47684 1.09512 9.4003 1.14635 9.34539C1.2746 9.20792 1.63193 8.75421 2.18891 8.04202C2.13911 8.08008 2.09632 8.11096 2.05826 8.13749C2.01357 8.16862 1.97853 8.19173 1.94842 8.21162C1.88568 8.25308 1.844 8.28073 1.77913 8.3382C1.63647 8.47832 1.42222 8.70773 1.19687 8.94924C1.13995 9.01021 1.05286 9.02154 1.00231 8.97445C0.951769 8.92731 0.95694 8.83959 1.01383 8.77858C1.01493 8.77738 1.01604 8.77618 1.01715 8.77498C1.24034 8.53578 1.4614 8.29895 1.61059 8.15272C1.64854 8.11552 1.68187 8.08406 1.70727 8.06079C1.72757 8.04218 1.7531 8.01913 1.76899 8.00788C1.77109 8.00638 1.77516 8.00358 1.78028 8.00048C1.78038 8.00044 1.78047 8.00039 1.78057 8.00035C1.78343 7.99861 1.79798 7.98971 1.81731 7.98372C1.82122 7.98251 1.8298 7.97996 1.84129 7.97842C1.84327 7.97711 1.84525 7.97581 1.84723 7.9745C1.8748 7.95625 1.90292 7.93763 1.93271 7.91687C2.04902 7.83582 2.22597 7.70073 2.56544 7.39266C2.87766 7.10932 3.37116 6.59871 3.97171 5.94756C3.92735 5.98805 3.88301 6.02875 3.83885 6.06956C3.72773 6.17225 3.61692 6.27618 3.50645 6.38049C3.46414 6.42046 3.42243 6.45991 3.38002 6.50019C3.31174 6.56503 3.24335 6.63014 3.17511 6.69533C3.12898 6.73937 3.08282 6.78356 3.03669 6.82767C3.0366 6.82778 3.0365 6.82788 3.0364 6.82799C2.97237 6.88922 2.90817 6.95059 2.84339 7.01237C2.82062 7.0339 2.79817 7.05522 2.7759 7.07641C2.68727 7.16074 2.60027 7.24366 2.49561 7.33496C2.48239 7.34561 2.46765 7.35683 2.45645 7.36502C2.44444 7.37385 2.43278 7.38225 2.42159 7.39004C2.41173 7.39692 2.4022 7.40336 2.39311 7.40959C2.3919 7.41043 2.39069 7.41127 2.38947 7.41211C2.37931 7.41908 2.36966 7.4258 2.36041 7.43229C2.35118 7.43877 2.34228 7.44501 2.33372 7.45134C2.33365 7.45141 2.33359 7.45148 2.33352 7.45155C2.32461 7.45819 2.31785 7.46324 2.3087 7.47056C2.29722 7.47974 2.2875 7.48778 2.276 7.49776C2.26486 7.50741 2.25344 7.51764 2.24204 7.52811C2.23065 7.53858 2.21919 7.54937 2.20764 7.5604C2.19608 7.57144 2.18439 7.58272 2.1727 7.59416C2.16102 7.6056 2.14926 7.61726 2.13744 7.62899C2.12562 7.64073 2.11367 7.6526 2.10169 7.66454C2.0741 7.69204 2.03862 7.71008 2.00274 7.71426C1.96687 7.71844 1.93364 7.70855 1.91006 7.68657C1.88648 7.66459 1.87429 7.63211 1.87596 7.59604C1.87764 7.55998 1.89313 7.52331 1.91865 7.49389C1.9256 7.48588 1.93256 7.4778 1.93959 7.46973C1.94375 7.46494 1.948 7.46014 1.9522 7.45532C1.96349 7.44239 1.97486 7.42928 1.98642 7.41621C1.99798 7.40315 2.00973 7.39006 2.02168 7.37688C2.03366 7.36366 2.04588 7.35033 2.05845 7.33698C2.07099 7.32366 2.08396 7.3102 2.09738 7.29673C2.11045 7.28357 2.12566 7.26885 2.13959 7.25597C2.14973 7.24653 2.16261 7.23524 2.17343 7.22591C2.18474 7.21618 2.19603 7.20675 2.20702 7.19776C2.21804 7.18875 2.22883 7.18016 2.23911 7.17195C2.2402 7.17106 2.24129 7.17018 2.24239 7.16929C2.25148 7.16203 2.26027 7.15503 2.2685 7.14834C2.2777 7.14087 2.2863 7.13369 2.29436 7.12677C2.30326 7.11917 2.30845 7.11435 2.31478 7.1084C2.39534 7.02693 2.49066 6.92229 2.58157 6.82253C2.59299 6.81 2.60438 6.79755 2.61563 6.78522C2.67527 6.71964 2.73468 6.65409 2.79405 6.58857C2.8372 6.54096 2.88038 6.49328 2.92368 6.44559C2.98738 6.37541 3.05139 6.30512 3.11544 6.235C3.15523 6.19147 3.19435 6.14878 3.23417 6.10546C3.33811 5.99233 3.44282 5.87921 3.54852 5.76674C3.65406 5.65442 3.76109 5.54214 3.86954 5.43103C3.97757 5.32036 4.0913 5.20674 4.20381 5.09952C4.28662 5.02077 4.37548 4.9437 4.45873 4.87336C4.50349 4.83557 4.5475 4.79873 4.59095 4.76251C4.59111 4.7624 4.59127 4.76228 4.59143 4.76217C4.62957 4.73038 4.66723 4.699 4.70443 4.66766C4.78422 4.60051 4.86171 4.53375 4.93786 4.46573C5.01389 4.39784 5.08829 4.32903 5.16182 4.2584C5.23478 4.18829 5.30765 4.11578 5.37857 4.04286C5.44985 3.96958 5.51867 3.89655 5.59007 3.81896C5.68385 3.71686 5.77551 3.61411 5.86934 3.50839C5.96244 3.40339 6.0558 3.29709 6.14938 3.19049C6.18209 3.15323 6.21493 3.11596 6.24773 3.07857C6.24786 3.07843 6.24799 3.07828 6.24812 3.07814C6.30879 3.00898 6.36961 2.93964 6.43054 2.87031C6.52463 2.76327 6.61909 2.65605 6.71437 2.54885C6.80963 2.44168 6.9059 2.33424 7.0036 2.22711C7.10137 2.12 7.20261 2.01078 7.30698 1.90352C7.40001 1.80776 7.49462 1.71201 7.58716 1.61844C7.6116 1.59373 7.63604 1.56902 7.66047 1.54431C7.77636 1.427 7.88783 1.31277 7.99538 1.19733C8.10292 1.08204 8.20779 0.964438 8.31155 0.843837C8.41498 0.723612 8.5178 0.600086 8.62026 0.474478C8.65111 0.436665 8.68172 0.398897 8.71222 0.361078L9.08198 0.00019145L9.37038 0.371339C9.45016 0.452067 9.5303 0.532173 9.61187 0.613137C9.72752 0.727849 9.84434 0.842535 9.96305 0.958223C10.029 1.02255 10.0983 1.09174 10.1633 1.15754C10.229 1.22398 10.2937 1.29043 10.3573 1.35624C10.3831 1.38295 10.4088 1.40959 10.4343 1.43601C10.4714 1.47453 10.5082 1.51275 10.5446 1.55025C10.606 1.61353 10.6662 1.67497 10.7256 1.73394C10.7849 1.79288 10.8434 1.8493 10.9013 1.90259C10.9612 1.95771 11.012 2.00198 11.0743 2.0535C11.2211 2.18342 11.3059 2.26923 11.4002 2.36452C11.4188 2.38328 11.4378 2.40241 11.4577 2.42232C11.5703 2.53703 11.6808 2.65329 11.7886 2.76916C11.8974 2.88618 12.0031 3.00252 12.109 3.12144C12.2139 3.2392 12.3182 3.35892 12.421 3.47911C12.5237 3.59911 12.6251 3.71987 12.7256 3.84193C12.826 3.96389 12.9273 4.08939 13.0235 4.21079C13.0792 4.28095 13.1375 4.35615 13.1912 4.42634C13.23 4.47696 13.2681 4.52703 13.3054 4.57612C13.3206 4.59617 13.3357 4.6161 13.3508 4.63582C13.4025 4.70382 13.453 4.76976 13.5025 4.83279C13.5521 4.89583 13.6008 4.95618 13.6497 5.01415C13.6577 5.02372 13.6658 5.03322 13.6739 5.04267L14.0435 5.51846L13.6608 5.89227C13.6179 5.93841 13.5764 5.98465 13.5359 6.03173C13.4856 6.09021 13.4448 6.13968 13.3941 6.20423C13.3611 6.24632 13.3289 6.28764 13.2968 6.32884C13.2487 6.39053 13.2011 6.4519 13.1533 6.51385C13.1056 6.57572 13.0586 6.63698 13.0116 6.69873C12.9965 6.71858 12.9805 6.73955 12.9654 6.7595C12.9188 6.82117 12.8728 6.88234 12.8273 6.94376C12.7818 7.00506 12.7371 7.06609 12.693 7.12725C12.6487 7.18867 12.6055 7.24941 12.5619 7.31175C12.4879 7.41776 12.4107 7.51343 12.3419 7.59609C12.2722 7.67966 12.2056 7.75638 12.1407 7.83102C12.1285 7.845 12.1164 7.85898 12.1042 7.87296C12.0518 7.93312 12.0002 7.99224 11.9498 8.05079C11.8876 8.12294 11.827 8.19422 11.7667 8.26621C11.7069 8.33757 11.6471 8.41011 11.5889 8.4822C11.5301 8.55499 11.4745 8.6251 11.4153 8.70133C11.3567 8.77667 11.2989 8.85475 11.2354 8.94027C11.1726 9.02503 11.1064 9.11381 11.0383 9.20264C10.9702 9.29141 10.9 9.38056 10.8289 9.46784C10.7577 9.55532 10.6851 9.64194 10.6123 9.72634C10.5391 9.81121 10.4653 9.89456 10.391 9.97669C10.3169 10.0586 10.2395 10.1425 10.1663 10.2203C10.0477 10.3462 9.92903 10.471 9.80995 10.5958C9.69151 10.72 9.57245 10.8443 9.45349 10.9682C9.33473 11.0918 9.21573 11.2156 9.0968 11.3389C8.97782 11.4624 8.85878 11.5857 8.73988 11.7089C8.71358 11.7361 8.68728 11.7634 8.66098 11.7906C8.56839 11.8865 8.4758 11.9824 8.38364 12.0779C8.38299 12.0785 8.38235 12.0792 8.3817 12.0798C8.26312 12.2028 8.14671 12.3236 8.02959 12.446C7.98661 12.4909 7.94534 12.5341 7.90354 12.5782C7.8617 12.6223 7.82075 12.6657 7.77958 12.7096C7.73835 12.7535 7.69755 12.7974 7.65758 12.8408C7.61718 12.8847 7.57801 12.9276 7.53887 12.9713C7.50296 13.0114 7.46772 13.0515 7.42918 13.0953C7.42566 13.0993 7.42215 13.1033 7.41863 13.1073C7.37646 13.1552 7.32796 13.2093 7.28175 13.2585C7.15921 13.3886 7.04052 13.5162 6.92044 13.6467C6.8003 13.7773 6.68115 13.9083 6.56133 14.0406C6.51453 14.0923 6.46761 14.1443 6.42063 14.1963C6.34753 14.2772 6.27417 14.3583 6.20042 14.4396C6.07908 14.5733 5.95696 14.7068 5.83302 14.8402C5.7465 14.9333 5.65906 15.0264 5.57113 15.1189L4.84591 15.8272L4.22679 15.1541C4.18845 15.1154 4.15022 15.0766 4.11215 15.0377C3.98502 14.908 3.85789 14.7759 3.7335 14.6446C3.59493 14.4982 3.45776 14.352 3.32022 14.2049C3.18291 14.0581 3.04582 13.9109 2.90953 13.7641C2.77272 13.6168 2.63647 13.4697 2.50034 13.3223C2.36413 13.1749 2.22818 13.0274 2.09228 12.8796C2.01095 12.7912 1.92973 12.7027 1.84851 12.6141C1.799 12.5739 1.75146 12.5354 1.70577 12.4984C1.36822 12.2248 1.1242 12.0269 0.815095 11.7526C0.784712 11.7272 0.758696 11.7078 0.727073 11.6841C0.72104 11.6796 0.714682 11.6748 0.708167 11.6699C0.66691 11.639 0.620011 11.603 0.558494 11.549C0.435776 11.4414 0.258524 11.2654 0.0685996 10.9979C0.0206233 10.9304 0.0301256 10.8464 0.0898891 10.8105C0.131829 10.7852 0.187393 10.7904 0.233361 10.8189C0.169164 10.7449 0.105414 10.6708 0.0418039 10.597C0.0164222 10.5675 0.00126037 10.5309 3.82662e-05 10.4952C-0.00116795 10.4594 0.0115651 10.4275 0.0356576 10.4061C0.059757 10.3846 0.0934436 10.3753 0.129617 10.38C0.165766 10.3846 0.201371 10.4028 0.228855 10.4304C0.301724 10.5036 0.37433 10.5767 0.447251 10.6494C0.520224 10.7222 0.593151 10.7944 0.666498 10.8665C0.739824 10.9387 0.813372 11.0105 0.887317 11.0824C0.960983 11.1541 1.03492 11.2257 1.10916 11.2973C1.18386 11.3694 1.25735 11.4399 1.33206 11.5115C1.37683 11.5544 1.42213 11.5979 1.46668 11.6404C1.48327 11.6563 1.49953 11.6717 1.51574 11.6872C1.529 11.6998 1.54229 11.7126 1.55599 11.7257C1.70029 11.8634 1.84615 12.0022 1.9909 12.1395C2.1363 12.2775 2.28168 12.4153 2.42717 12.553C2.57273 12.6907 2.71833 12.8281 2.86402 12.9656C3.00965 13.103 3.15527 13.2403 3.30128 13.3776C3.44677 13.5145 3.59291 13.6519 3.73892 13.7887C3.85186 13.8945 3.96403 13.9992 4.07654 14.104C4.12431 14.1416 4.17138 14.1791 4.21774 14.2162C4.35268 14.3243 4.49152 14.4287 4.62838 14.5314C4.40472 14.3281 4.2192 14.1709 4.04254 14.0212C4.01885 14.0011 3.99531 13.9812 3.97187 13.9613C3.7326 13.7582 3.50331 13.5602 3.21538 13.2728C2.39649 12.4556 1.9229 11.9804 1.63528 11.6767C1.34772 11.373 1.236 11.2305 1.1493 11.0794C1.0268 10.866 0.726647 10.5193 0.563429 10.3577C0.504136 10.299 0.495477 10.2115 0.544063 10.1624C0.592678 10.1132 0.6802 10.121 0.739502 10.1797C0.911849 10.3503 1.23839 10.7237 1.38421 10.9777C1.44915 11.0909 1.53636 11.2082 1.81954 11.5072C2.10275 11.8063 2.57201 12.277 3.39248 13.0958C3.67005 13.3728 3.89058 13.5636 4.1273 13.7645C4.15051 13.7842 4.17395 13.804 4.19755 13.824C4.19769 13.8241 4.19783 13.8242 4.19797 13.8244C4.40472 13.9995 4.62894 14.1895 4.91283 14.4525L4.84929 14.4542C4.86265 14.4388 4.8762 14.4233 4.88997 14.4077C5.52556 13.6841 6.37069 12.7017 6.56078 12.4588C6.59809 12.4111 6.63359 12.3645 6.67107 12.3154C6.81493 12.1269 6.98864 11.8993 7.41095 11.4148C7.50331 11.3089 7.61317 11.1863 7.73408 11.0535C7.89186 10.8324 8.04613 10.6187 8.1866 10.4388C8.30784 10.2835 8.40883 10.1303 8.50395 9.97935C8.53133 9.9359 8.55862 9.89191 8.58589 9.84802C8.65165 9.74215 8.71746 9.63625 8.78503 9.53624C8.8389 9.45651 8.89368 9.37152 8.95156 9.28169C9.16243 8.95445 9.41513 8.56231 9.82009 8.12099C10.2494 7.65316 10.6282 7.26302 10.9561 6.92765C10.7109 7.16992 10.5166 7.35226 10.3538 7.50338C10.3231 7.53189 10.2937 7.55917 10.2653 7.58543C10.065 7.77095 9.91942 7.90582 9.77628 8.06225C9.09256 8.80941 8.85085 9.10322 8.60562 9.46004C8.54105 9.55399 8.47254 9.66013 8.39872 9.77447C8.25118 10.003 8.0824 10.2643 7.8815 10.5272C7.69438 10.772 7.49252 11.0526 7.27859 11.3499C7.27849 11.35 7.2784 11.3501 7.2783 11.3502C7.2365 11.4083 7.19419 11.467 7.15149 11.5263C6.89108 11.8875 6.61539 12.2657 6.33352 12.6214C6.30337 12.6595 6.26774 12.7055 6.22685 12.7584C5.99083 13.0634 5.57647 13.599 4.99103 14.1799C4.92261 14.2478 4.85094 14.3154 4.77476 14.3855L4.98367 14.38C4.924 14.3112 4.86245 14.2388 4.79714 14.162C4.75463 14.112 4.71054 14.06 4.66429 14.006C4.46461 13.7727 4.2191 13.4922 3.87746 13.1338C3.59551 12.838 3.24447 12.4852 2.88 12.1187C2.70047 11.9382 2.51772 11.7543 2.33829 11.5724C1.79628 11.023 1.30602 10.5128 0.816735 10.0035C0.816632 10.0034 0.816529 10.0033 0.816426 10.0032C0.758623 9.94305 0.75261 9.85577 0.802999 9.80843C0.853385 9.76113 0.941107 9.77151 0.998897 9.83164C1.48847 10.3412 1.97716 10.8499 2.51736 11.3975C2.69407 11.5766 2.87539 11.7591 3.05422 11.9389C3.42046 12.3071 3.7764 12.6649 4.06098 12.9634C4.40843 13.3279 4.65842 13.6135 4.86084 13.85C4.90959 13.907 4.95526 13.9607 4.99862 14.0117C5.05563 14.0788 5.10866 14.1412 5.15953 14.2002L4.58971 14.2151C4.67135 14.1403 4.74624 14.0701 4.81783 13.9991C5.38469 13.4366 5.78346 12.9214 6.02044 12.6152C6.06247 12.561 6.09945 12.5133 6.13133 12.473C6.40767 12.1242 6.67919 11.7518 6.93935 11.391C6.98156 11.3325 7.02355 11.2742 7.06517 11.2163C7.06524 11.2162 7.06531 11.2161 7.06538 11.2159C7.27925 10.9187 7.48478 10.6331 7.67538 10.3837C7.86885 10.1306 8.02097 9.89462 8.16328 9.67387C8.23965 9.55541 8.31326 9.44139 8.38883 9.33144C8.64899 8.95289 8.905 8.64367 9.59092 7.89411ZM0.332852 10.9331C0.454418 11.0959 0.566711 11.2149 0.655246 11.2986C0.586282 11.2212 0.51774 11.1437 0.449325 11.066C0.410384 11.0217 0.371572 10.9775 0.332852 10.9331ZM7.93475 11.2048C7.91571 11.2315 7.89655 11.2584 7.87733 11.2853C7.93736 11.2173 7.99751 11.1492 8.05755 11.0813C8.13127 10.998 8.20507 10.9147 8.27886 10.8315C8.15847 10.961 8.04223 11.0869 7.93475 11.2048ZM10.0052 8.28953C9.62334 8.70572 9.39111 9.0657 9.18174 9.39035C9.12145 9.48384 9.06294 9.57446 9.0034 9.66259C8.97871 9.69914 8.95455 9.73612 8.93048 9.77367C9.10665 9.58815 9.26897 9.41796 9.40189 9.27868C9.79852 8.86307 10.0357 8.63703 10.244 8.4384C10.3043 8.38093 10.3622 8.32567 10.4209 8.26887C10.4604 8.21356 10.5017 8.1564 10.5443 8.09939C10.6038 8.0195 10.669 7.93398 10.7319 7.85329C10.7949 7.77228 10.8598 7.69066 10.9243 7.6112C10.9893 7.53109 11.0544 7.45241 11.1198 7.37454C11.1813 7.30127 11.2431 7.22869 11.3028 7.15847C11.3063 7.15445 11.3097 7.15043 11.3131 7.14641C11.3763 7.07217 11.4377 6.99999 11.493 6.93251C11.5492 6.86379 11.5946 6.80544 11.632 6.75106C11.6788 6.68316 11.7274 6.61403 11.776 6.54611C11.8245 6.47811 11.8734 6.41086 11.9225 6.34421C11.9718 6.27742 12.0209 6.21163 12.0706 6.14598C12.0866 6.12475 12.1034 6.10258 12.1194 6.08159C12.1268 6.07191 12.1341 6.06222 12.1415 6.05259C12.0323 6.16988 11.9186 6.29134 11.8006 6.41642C11.6302 6.59712 11.4445 6.78665 11.2398 6.99574C10.8905 7.35244 10.4856 7.76607 10.0052 8.28953ZM12.0553 4.74873C12.1014 4.80097 12.1696 4.87681 12.2576 4.97464C12.2784 4.99777 12.3005 5.02212 12.3234 5.04768C12.323 5.04703 12.3224 5.0464 12.3219 5.04575C12.271 4.97714 12.2237 4.91401 12.172 4.84643C12.0798 4.72599 11.9895 4.60966 11.8974 4.49296C11.8048 4.37581 11.7117 4.25976 11.6176 4.14434C11.5233 4.02874 11.4278 3.91362 11.3322 3.80032C11.2357 3.68594 11.1397 3.57391 11.0415 3.46188C11.0103 3.4262 10.9788 3.39051 10.9472 3.35493C11.0119 3.43937 11.0802 3.52616 11.1523 3.61783C11.2099 3.69103 11.2699 3.76741 11.3326 3.84814C11.3566 3.87904 11.3851 3.91688 11.4184 3.96102C11.5502 4.13596 11.757 4.41051 12.0553 4.74873ZM10.1174 2.50171C10.0935 2.47666 10.0699 2.45166 10.0467 2.42679C9.98078 2.35597 9.91758 2.28602 9.85593 2.21717C9.81264 2.16881 9.77007 2.12081 9.72806 2.07355C9.71033 2.05361 9.6926 2.03371 9.67505 2.01399C9.64565 1.98095 9.61638 1.94824 9.5873 1.91578C9.78162 2.1518 9.97278 2.38147 10.1752 2.61807C10.1778 2.62119 10.1806 2.62428 10.1833 2.62742C10.1608 2.58456 10.1388 2.54267 10.1174 2.50171Z" fill="#FF7F65"/>
<path d="M22.3349 14.8264C22.6075 14.5356 22.8759 14.2752 23.2149 13.9463C23.2151 13.9461 23.2153 13.9459 23.2154 13.9457C23.2639 13.8987 23.3138 13.8504 23.3654 13.8003C23.7804 13.397 24.3173 12.8708 25.1061 12.0579C25.9777 11.1596 26.7095 10.4839 27.1741 10.088C27.2607 10.0141 27.346 9.93352 27.553 9.72264C27.6363 9.63776 27.7371 9.53407 27.8634 9.40383V10.3485C27.7864 10.2642 27.6996 10.1692 27.601 10.0615C27.4653 9.91307 27.3074 9.7404 27.1227 9.53808C26.5112 8.86834 25.5343 7.83619 24.634 6.88518C24.0876 6.30797 23.5694 5.76053 23.1784 5.34221C22.6067 4.73043 22.0622 4.13338 21.4703 3.48426C20.9282 2.8898 20.3464 2.25161 19.6673 1.51867C19.529 1.36933 19.394 1.21895 19.2614 1.06755L20.13 1.06476C19.7369 1.45885 19.3349 1.83522 18.926 2.21417C18.8552 2.27984 18.784 2.34575 18.7128 2.4117C18.2211 2.86665 17.7185 3.33166 17.1943 3.85245C16.2599 4.78076 15.5612 5.56513 14.7876 6.43361C14.485 6.77327 14.171 7.12587 13.8268 7.50498C13.2826 8.10453 12.4891 8.95613 11.6918 9.81071C11.6239 9.8835 11.5559 9.95644 11.4881 10.0291C11.4877 10.0295 11.4874 10.0299 11.487 10.0302C10.7571 10.8125 10.0408 11.5802 9.52045 12.1483C8.69361 13.0511 8.39492 13.4022 8.14584 13.6952C8.05221 13.8053 7.96557 13.9073 7.86047 14.0272C7.48197 14.459 6.89004 15.0918 6.29004 15.7332C6.28776 15.7357 6.28548 15.7382 6.2832 15.7406C6.18362 15.8471 6.06218 15.8948 6.012 15.8473C5.96183 15.7997 6.00187 15.6748 6.10146 15.5684C6.41927 15.2286 6.72939 14.897 7.00518 14.5984C6.976 14.5426 7.01756 14.4318 7.10717 14.336C7.33152 14.0961 7.98329 13.3286 9.0011 12.1254C8.91978 12.197 8.85059 12.256 8.78939 12.3072C8.71755 12.3673 8.66171 12.4126 8.61372 12.4515C8.5137 12.5327 8.44722 12.5868 8.3383 12.6912C8.09358 12.94 7.71889 13.3404 7.3247 13.7618C7.22515 13.8682 7.10378 13.9161 7.05359 13.8686C7.00344 13.8211 7.04352 13.6961 7.14305 13.5897C7.14499 13.5876 7.14693 13.5855 7.14887 13.5834C7.53929 13.166 7.92594 12.7528 8.18174 12.4929C8.24682 12.4268 8.30351 12.3705 8.34645 12.3285C8.38077 12.2949 8.42381 12.2532 8.44941 12.2316C8.45281 12.2288 8.45933 12.2233 8.46739 12.2171C8.46754 12.217 8.46768 12.2169 8.46782 12.2168C8.47232 12.2133 8.49525 12.1955 8.52351 12.18C8.52921 12.1769 8.54171 12.1702 8.55775 12.1638C8.5609 12.1612 8.56406 12.1587 8.56721 12.1561C8.61117 12.1204 8.65602 12.084 8.70391 12.0439C8.89089 11.8875 9.17982 11.6331 9.75257 11.0765C10.2794 10.5645 11.1357 9.66724 12.189 8.53359C12.1141 8.60667 12.0391 8.68003 11.9643 8.75345C11.7762 8.93827 11.5879 9.12469 11.4 9.31154C11.328 9.38311 11.257 9.45376 11.1848 9.52582C11.0685 9.64182 10.952 9.75824 10.8356 9.87471C10.757 9.9534 10.6782 10.0323 10.5995 10.1111C10.5994 10.1113 10.5992 10.1115 10.599 10.1117C10.4898 10.2211 10.3803 10.3307 10.2699 10.4411C10.2311 10.4797 10.1929 10.5178 10.155 10.5557C10.004 10.7065 9.85568 10.8547 9.68047 11.0212C9.65868 11.041 9.63463 11.0621 9.61647 11.0777C9.597 11.0945 9.57814 11.1106 9.56016 11.1256C9.5443 11.1389 9.52905 11.1514 9.51449 11.1635C9.51254 11.1651 9.51059 11.1667 9.50864 11.1683C9.49234 11.1818 9.47683 11.1948 9.46194 11.2073C9.44708 11.2198 9.43277 11.2318 9.41887 11.2438C9.41875 11.2439 9.41864 11.2441 9.41853 11.2442C9.40403 11.2568 9.39304 11.2663 9.37797 11.28C9.35907 11.2971 9.34296 11.3119 9.32373 11.3301C9.30512 11.3477 9.28589 11.3663 9.26661 11.3851C9.24735 11.404 9.22785 11.4234 9.20816 11.4431C9.18845 11.4628 9.16848 11.4829 9.14844 11.5032C9.12842 11.5236 9.10821 11.5442 9.08788 11.565C9.06755 11.5858 9.047 11.6068 9.02639 11.628C8.97891 11.6767 8.92439 11.715 8.87458 11.734C8.82477 11.7531 8.78382 11.7514 8.76042 11.7292C8.73703 11.7071 8.7329 11.666 8.74876 11.6148C8.76465 11.5636 8.79931 11.5065 8.84474 11.4558C8.85711 11.4421 8.86952 11.4282 8.88201 11.4143C8.88942 11.406 8.89695 11.3977 8.90441 11.3895C8.92447 11.3672 8.94471 11.3446 8.96519 11.322C8.98566 11.2995 9.0064 11.2768 9.02745 11.2539C9.04854 11.231 9.07001 11.2078 9.09195 11.1845C9.11384 11.1612 9.13637 11.1376 9.15949 11.1137C9.18203 11.0905 9.20805 11.0643 9.23163 11.0411C9.24884 11.0241 9.27041 11.0036 9.2885 10.9865C9.30737 10.9687 9.32611 10.9513 9.34428 10.9347C9.3625 10.918 9.38025 10.902 9.39717 10.8867C9.39898 10.8851 9.40078 10.8834 9.40258 10.8818C9.41755 10.8683 9.43201 10.8552 9.4456 10.8428C9.4608 10.829 9.47507 10.8157 9.48852 10.8031C9.50335 10.7892 9.51215 10.7805 9.5229 10.7698C9.66199 10.626 9.82966 10.4442 9.98957 10.271C10.0097 10.2492 10.0297 10.2276 10.0494 10.2062C10.1544 10.0923 10.259 9.97854 10.3636 9.86487C10.4396 9.78225 10.5157 9.69953 10.5919 9.61676C10.704 9.49495 10.8166 9.37288 10.9292 9.25103C10.9992 9.17537 11.0679 9.10115 11.1378 9.02577C11.3203 8.82896 11.5038 8.63188 11.6883 8.43534C11.8727 8.23908 12.059 8.04233 12.2467 7.8467C12.4338 7.65182 12.6296 7.45073 12.8214 7.25906C12.9624 7.11823 13.111 6.97753 13.2495 6.84832C13.324 6.77888 13.397 6.71107 13.4691 6.64432C13.4694 6.6441 13.4697 6.64389 13.4699 6.64367C13.5332 6.58508 13.5957 6.52726 13.6575 6.46965C13.7902 6.34619 13.9196 6.2241 14.0476 6.10077C14.1755 5.97764 14.3015 5.85383 14.427 5.72779C14.5516 5.60268 14.677 5.47424 14.7999 5.34594C14.9234 5.217 15.0435 5.08932 15.1688 4.9543C15.3334 4.77668 15.4955 4.59894 15.6616 4.41622C15.8264 4.23479 15.992 4.05145 16.1581 3.8676C16.2162 3.80334 16.2744 3.73901 16.3326 3.67453C16.3328 3.67428 16.3331 3.67404 16.3333 3.67379C16.441 3.55452 16.5489 3.43495 16.6571 3.31535C16.824 3.1307 16.9915 2.94566 17.16 2.76034C17.3286 2.57507 17.4986 2.38905 17.6704 2.20294C17.8423 2.01685 18.0197 1.82651 18.2005 1.63777C18.3618 1.46932 18.5251 1.30031 18.6849 1.13511C18.7271 1.09149 18.7693 1.04786 18.8115 1.00424C19.0116 0.797177 19.2046 0.596055 19.3928 0.394679C19.3952 0.392061 19.3977 0.389443 19.4001 0.386825L19.7103 0.0725042L19.9869 0.384937C20.1726 0.583493 20.3606 0.779592 20.5524 0.975574C20.7461 1.17354 20.9441 1.3722 21.145 1.57136C21.3466 1.77138 21.5469 1.96772 21.7519 2.16745C21.9553 2.36563 22.1603 2.56415 22.3683 2.76466C22.4838 2.87615 22.606 2.99555 22.7209 3.1088C22.8369 3.22316 22.9517 3.33725 23.0648 3.45009C23.1107 3.49588 23.1563 3.54152 23.2016 3.58681C23.2677 3.65284 23.3332 3.71832 23.3978 3.78265C23.5068 3.89122 23.6135 3.99683 23.7179 4.09868C23.8223 4.20047 23.9245 4.29845 24.0246 4.39182C24.1282 4.48844 24.2149 4.56685 24.3202 4.65913C24.5716 4.88855 24.7215 5.03627 24.8882 5.20034C24.921 5.23265 24.9546 5.26562 24.9896 5.29995C25.189 5.49716 25.3862 5.69591 25.5797 5.89326C25.775 6.09254 25.9659 6.28991 26.1581 6.49095C26.3485 6.69004 26.539 6.89172 26.7276 7.09359C26.916 7.29514 27.103 7.49736 27.2894 7.70114C27.4756 7.90476 27.6646 8.11365 27.8449 8.31515C27.9492 8.4316 28.0592 8.55602 28.161 8.67193C28.2345 8.75554 28.3067 8.83813 28.3775 8.9191C28.4064 8.95217 28.4351 8.98504 28.4636 9.01758C28.5618 9.12978 28.6574 9.23867 28.7505 9.34315C28.7783 9.37439 28.8059 9.40528 28.8334 9.43582L29.2469 9.90291L28.8334 10.3165C28.7659 10.3851 28.7001 10.4528 28.636 10.52C28.5443 10.616 28.4559 10.711 28.3687 10.8073C28.2783 10.9072 28.2042 10.991 28.111 11.0996C28.0502 11.1703 27.9909 11.2397 27.9316 11.3088C27.843 11.4124 27.7551 11.5154 27.6668 11.6192C27.5785 11.7229 27.4916 11.8255 27.4044 11.9288C27.3763 11.962 27.3467 11.997 27.3186 12.0304C27.2319 12.1334 27.1464 12.2355 27.0613 12.3378C26.9763 12.4399 26.8925 12.5413 26.8094 12.6428C26.7259 12.7446 26.6443 12.8451 26.5614 12.948C26.4206 13.1229 26.2797 13.2845 26.155 13.4248C26.0288 13.5668 25.9093 13.698 25.793 13.8258C25.7713 13.8497 25.7495 13.8736 25.7277 13.8975C25.6338 14.0005 25.5415 14.1017 25.4508 14.2018C25.3391 14.3251 25.2299 14.4465 25.1208 14.5689C25.0127 14.6902 24.904 14.8132 24.7977 14.9349C24.6904 15.0579 24.5884 15.1759 24.4791 15.3038C24.371 15.4303 24.2629 15.5603 24.1444 15.7028C24.0269 15.8439 23.9035 15.9919 23.7773 16.1407C23.6513 16.2893 23.5222 16.4392 23.3926 16.5869C23.2629 16.7348 23.1315 16.8821 23.0008 17.0263C22.8694 17.1713 22.7378 17.3144 22.6059 17.456C22.4744 17.5973 22.3376 17.7424 22.2089 17.8775C22.0004 18.0962 21.7923 18.3134 21.5836 18.5308C21.376 18.747 21.1676 18.9636 20.9594 19.1797C20.7516 19.3953 20.5434 19.6111 20.3355 19.8264C20.1274 20.0418 19.9193 20.2571 19.7115 20.4721C19.6656 20.5196 19.6196 20.5672 19.5737 20.6147C19.4118 20.7821 19.25 20.9495 19.0889 21.1162C19.0878 21.1174 19.0867 21.1185 19.0855 21.1196C18.8782 21.3343 18.6747 21.545 18.4696 21.7583C18.3943 21.8366 18.322 21.9119 18.2486 21.9885C18.1752 22.0652 18.1033 22.1406 18.0308 22.2168C17.9583 22.2931 17.8863 22.3691 17.8157 22.4442C17.7443 22.5201 17.6749 22.5942 17.6053 22.6694C17.5414 22.7383 17.4784 22.8071 17.4096 22.8822C17.4033 22.8891 17.397 22.896 17.3907 22.9028C17.3154 22.985 17.2291 23.078 17.1478 23.1635C16.9324 23.3895 16.7232 23.6106 16.5109 23.8363C16.2986 24.0621 16.0874 24.2882 15.8748 24.5164C15.7917 24.6055 15.7084 24.6951 15.625 24.7847C15.4953 24.924 15.365 25.0639 15.2342 25.2041C15.203 25.2375 15.1718 25.271 15.1405 25.3045L14.4215 26.0237L13.7776 25.3117C13.59 25.1177 13.4024 24.923 13.2145 24.7264C12.9955 24.4973 12.7761 24.2658 12.5589 24.0341C12.3419 23.8027 12.1242 23.5681 11.9104 23.3355C11.6722 23.0764 11.436 22.8181 11.199 22.5585C10.9624 22.2993 10.7259 22.0396 10.4907 21.7809C10.2547 21.5213 10.0194 21.2621 9.78423 21.0027C9.54893 20.7431 9.31396 20.4835 9.07898 20.2236C8.93834 20.0681 8.79784 19.9125 8.65731 19.7568C8.57622 19.6809 8.49839 19.6082 8.42358 19.5382C7.87079 19.0211 7.47115 18.6472 6.95713 18.1412C6.9071 18.0935 6.86506 18.056 6.81394 18.0103C6.80418 18.0016 6.79388 17.9923 6.78334 17.9829C6.7166 17.9231 6.64046 17.854 6.53837 17.7542C6.33472 17.555 6.03376 17.239 5.6852 16.7919C5.59715 16.679 5.58241 16.5674 5.65236 16.5428C5.70146 16.5256 5.77925 16.5557 5.85166 16.6142C5.73927 16.4856 5.62746 16.3571 5.51591 16.229C5.4714 16.1779 5.43854 16.1212 5.42505 16.0716C5.41158 16.0219 5.41846 15.9832 5.44436 15.9637C5.47027 15.9443 5.51334 15.9455 5.56441 15.9669C5.61546 15.9884 5.67023 16.0282 5.717 16.0776C5.84102 16.2088 5.96461 16.3395 6.08853 16.4699C6.21255 16.6005 6.33628 16.7301 6.4606 16.86C6.58488 16.9897 6.70937 17.1193 6.83442 17.249C6.959 17.3782 7.08395 17.5076 7.2093 17.637C7.33544 17.7673 7.45941 17.8949 7.58541 18.0246C7.66092 18.1023 7.73732 18.1809 7.8124 18.258C7.84037 18.2867 7.86774 18.3147 7.89507 18.3428C7.9174 18.3657 7.93982 18.3888 7.96292 18.4125C8.20607 18.662 8.45174 18.9137 8.69539 19.163C8.94017 19.4135 9.18484 19.6636 9.42961 19.9135C9.67451 20.1637 9.91936 20.4134 10.1644 20.6632C10.4092 20.9129 10.6541 21.1624 10.8995 21.4122C11.144 21.6611 11.3895 21.911 11.6347 22.16C11.8244 22.3526 12.0127 22.5434 12.2014 22.7344C12.2793 22.8061 12.3562 22.8773 12.4319 22.9477C12.6524 23.1525 12.8771 23.3539 13.0985 23.5523C12.725 23.1795 12.4189 22.8859 12.1275 22.6064C12.0884 22.5689 12.0496 22.5317 12.0109 22.4945C11.616 22.1155 11.2365 21.7475 10.7472 21.2322C9.35538 19.7668 8.54966 18.9158 8.05532 18.3781C7.56107 17.8406 7.36091 17.5979 7.19223 17.3539C6.95388 17.0092 6.42814 16.4071 6.15117 16.1168C6.05056 16.0114 6.00978 15.8874 6.06007 15.84C6.1104 15.7926 6.23282 15.8397 6.33345 15.9452C6.62591 16.2517 7.19662 16.9015 7.48032 17.3118C7.60668 17.4945 7.7649 17.6922 8.25162 18.2216C8.73839 18.751 9.53673 19.5941 10.9312 21.0624C11.4029 21.5591 11.768 21.9134 12.1587 22.2884C12.197 22.3252 12.2356 22.3621 12.2745 22.3995C12.2748 22.3997 12.275 22.4 12.2752 22.4002C12.6342 22.7445 13.0252 23.1194 13.5379 23.6388C13.8415 23.9464 14.1727 24.2807 14.5038 24.6139L14.407 24.6144C15.3212 23.6094 16.2265 22.605 16.4866 22.3018C16.5553 22.2217 16.6212 22.1437 16.6907 22.0615C16.9574 21.7461 17.2795 21.3653 18.0358 20.5358C18.2012 20.3544 18.3966 20.1435 18.6109 19.9143C18.909 19.5483 19.1995 19.1939 19.4583 18.8917C19.6817 18.6309 19.8771 18.3803 20.0636 18.1349C20.1173 18.0643 20.1711 17.9929 20.2248 17.9217C20.3544 17.75 20.484 17.5781 20.6137 17.4139C20.7171 17.283 20.8238 17.1444 20.9366 16.9979C21.3473 16.4643 21.8394 15.8248 22.5557 15.062C23.315 14.2534 23.9762 13.5716 24.5477 12.9847C24.1237 13.4117 23.7913 13.7365 23.5136 14.0063C23.4612 14.0572 23.411 14.106 23.3626 14.1529C23.0211 14.4843 22.7728 14.7252 22.5194 14.9955C21.3093 16.2862 20.87 16.7841 20.4016 17.3714C20.2783 17.5261 20.1449 17.6992 20.0012 17.8857C19.714 18.2584 19.3855 18.6848 19.0132 19.1247C18.6664 19.5344 18.2859 19.9995 17.8827 20.4923C17.8825 20.4924 17.8824 20.4926 17.8822 20.4928C17.8034 20.5891 17.7237 20.6865 17.6432 20.7847C17.1527 21.3836 16.6349 22.0118 16.1176 22.6108C16.0623 22.6748 15.9964 22.752 15.9209 22.8407C15.5865 23.2331 15.0582 23.853 14.3728 24.5822L14.5377 24.5813C14.3271 24.3624 14.1072 24.1284 13.8812 23.8807C13.6681 23.6471 13.4529 23.3983 13.2075 23.1142C13.1327 23.0277 13.0552 22.9378 12.9739 22.8442C12.6233 22.4401 12.1943 21.9519 11.6079 21.3165C11.124 20.7922 10.5265 20.1604 9.90617 19.5044C9.6006 19.1813 9.28952 18.8522 8.98364 18.5272C8.05965 17.5456 7.21949 16.6394 6.38098 15.7349C6.38081 15.7348 6.38063 15.7346 6.38046 15.7344C6.2814 15.6275 6.2443 15.5049 6.29765 15.4608C6.35102 15.4167 6.47459 15.4675 6.57362 15.5742C7.41263 16.4793 8.25015 17.3827 9.17105 18.3611C9.47229 18.6812 9.78094 19.0076 10.0853 19.3295C10.7087 19.9887 11.3145 20.6292 11.8029 21.1585C12.3993 21.8046 12.8361 22.3018 13.1916 22.7115C13.2772 22.8101 13.3575 22.9031 13.4337 22.9913C13.6765 23.2722 13.8782 23.5058 14.0804 23.7273C14.3001 23.9682 14.5137 24.1953 14.7181 24.4079L14.1905 24.4107C14.8523 23.7067 15.363 23.1075 15.6984 22.7141C15.776 22.6231 15.8443 22.5431 15.9028 22.4753C16.41 21.8881 16.9198 21.2695 17.4099 20.6712C17.4894 20.5742 17.5686 20.4775 17.647 20.3817C17.6472 20.3814 17.6473 20.3812 17.6474 20.381C18.0505 19.8884 18.4379 19.4149 18.7912 18.9976C19.1497 18.574 19.446 18.1891 19.7231 17.8291C19.8718 17.6359 20.0151 17.4499 20.1595 17.2689C20.6564 16.6458 21.1209 16.1213 22.3349 14.8264ZM6.02568 16.8127C6.24599 17.0873 6.43915 17.2979 6.58806 17.4498C6.46801 17.3146 6.34852 17.1794 6.22912 17.044C6.16116 16.9669 6.09337 16.8899 6.02568 16.8127ZM18.8225 20.0544C18.7865 20.0985 18.7503 20.143 18.714 20.1877C18.8212 20.0709 18.9285 19.9541 19.0357 19.8376C19.1673 19.6945 19.2989 19.5515 19.4305 19.4085C19.2182 19.633 19.0129 19.8508 18.8225 20.0544ZM22.7397 15.2318C22.0643 15.9512 21.6121 16.5383 21.2045 17.0677C21.0871 17.2202 20.9732 17.368 20.8589 17.5127C20.8115 17.5727 20.7646 17.6331 20.7176 17.6943C21.0267 17.3715 21.3112 17.0752 21.5442 16.8326C22.2392 16.1088 22.6461 15.7075 23.0037 15.3548C23.1071 15.2527 23.2065 15.1547 23.3075 15.0541C23.3821 14.9626 23.4599 14.8678 23.5392 14.7727C23.6503 14.6395 23.7713 14.4965 23.8872 14.361C24.0035 14.225 24.1225 14.0875 24.24 13.9532C24.3586 13.8178 24.4768 13.6843 24.595 13.5519C24.7062 13.4273 24.8175 13.3036 24.9252 13.1839C24.9313 13.177 24.9375 13.1702 24.9437 13.1633C25.0575 13.0368 25.1682 12.9137 25.2687 12.7995C25.371 12.6831 25.4548 12.5852 25.5263 12.4956C25.6156 12.3838 25.7078 12.2697 25.7994 12.1572C25.8912 12.0446 25.983 11.933 26.075 11.8221C26.1672 11.7109 26.2589 11.6012 26.3511 11.4915C26.381 11.4561 26.4122 11.419 26.4418 11.3839C26.4555 11.3677 26.4691 11.3515 26.4828 11.3354C26.2903 11.5387 26.0902 11.7494 25.8829 11.9668C25.5834 12.2808 25.26 12.6126 24.9033 12.9786C24.2948 13.603 23.5893 14.327 22.7397 15.2318ZM26.7837 8.76929C26.8675 8.85747 26.9911 8.98592 27.1504 9.15159C27.1881 9.19075 27.2279 9.23202 27.2695 9.27531C27.2686 9.27424 27.2676 9.27318 27.2667 9.27212C27.1693 9.15932 27.0791 9.0554 26.9812 8.94381C26.8067 8.74494 26.6363 8.55244 26.4634 8.35885C26.2898 8.1645 26.1157 7.97152 25.9407 7.7791C25.7654 7.58639 25.5887 7.39398 25.4126 7.20411C25.2348 7.0124 25.0587 6.82419 24.8798 6.6353C24.8228 6.57513 24.7655 6.51488 24.7081 6.45476C24.8307 6.59423 24.9589 6.73812 25.0944 6.8901C25.2026 7.01147 25.3154 7.13808 25.4336 7.27168C25.4789 7.3228 25.5331 7.38514 25.5964 7.45787C25.8472 7.74609 26.2407 8.19839 26.7837 8.76929ZM23.2355 4.99027C23.1929 4.94743 23.1507 4.90473 23.1091 4.86236C22.9908 4.74173 22.8765 4.62318 22.7647 4.50667C22.6863 4.42484 22.6089 4.34375 22.5326 4.26388C22.5004 4.23017 22.4682 4.19653 22.4364 4.16319C22.383 4.10734 22.3299 4.052 22.2772 3.99707C22.6376 4.39109 22.991 4.77518 23.3624 5.17256C23.3673 5.1778 23.3723 5.18302 23.3772 5.18831C23.3289 5.12078 23.2817 5.05478 23.2355 4.99027Z" fill="#FF7F65"/>
<path d="M17.4587 4.64711C17.4809 4.58553 17.5526 4.54997 17.6187 4.53537C17.6393 4.53071 17.6693 4.57605 17.6852 4.57457C17.7162 4.57162 17.7142 4.53595 17.7477 4.53609C17.759 4.53632 17.8096 4.6048 17.8201 4.60364C17.8774 4.59687 17.8928 4.54933 17.9372 4.52809C18.1562 4.4236 18.3338 4.2808 18.5206 4.13797C18.5821 4.09082 18.6987 4.0779 18.7306 3.9955C18.7343 3.98582 18.6799 3.93619 18.677 3.93048C18.6323 3.8425 18.728 3.95759 18.7539 3.95877C18.8568 3.96314 18.9164 3.90972 18.9444 3.8385C18.9562 3.80805 18.8356 3.72297 18.9122 3.76118C18.9175 3.76372 18.966 3.82617 18.9772 3.82636C19.0027 3.82667 19.0169 3.79113 19.0309 3.78529C19.0582 3.77432 19.0607 3.77045 19.0791 3.75222C19.1047 3.72779 19.1602 3.72543 19.1741 3.68483C19.1769 3.67599 19.1146 3.62538 19.1141 3.60601C19.1136 3.58665 19.1418 3.56665 19.1627 3.57201C19.1835 3.57737 19.2234 3.62688 19.2347 3.63592C19.3298 3.71252 19.2412 3.56059 19.2418 3.55383C19.2568 3.43425 19.3774 3.44627 19.437 3.38249C19.4818 3.33433 19.5085 3.2604 19.554 3.21749L19.7451 2.91807L20.1603 3.21749C20.1607 3.21789 20.161 3.21829 20.1613 3.21869C20.209 3.27741 20.2229 3.35545 20.278 3.40316C20.2838 3.40826 20.3422 3.33298 20.3494 3.33907C20.4254 3.40387 20.4863 3.48364 20.5109 3.6025C20.5133 3.61448 20.4477 3.66543 20.4467 3.68101C20.4419 3.77504 20.3961 3.96447 20.668 3.72825C20.6867 3.76862 20.7111 3.81578 20.6867 3.89566C20.671 3.9471 20.5933 3.99594 20.6397 3.98924C20.6501 3.98781 20.6984 3.924 20.7099 3.9262C20.7583 3.93552 20.7719 3.98743 20.8282 3.98776C20.8398 3.98769 20.8867 3.93445 20.8971 3.9269C20.9815 3.86626 20.8874 4.01481 20.8839 4.02913C20.8583 4.13672 20.9109 4.1396 20.9446 4.17873C20.9524 4.18784 21.0079 4.10829 21.0178 4.11457C21.068 4.14805 21.1047 4.19898 21.1158 4.27222C21.1181 4.28868 21.0544 4.33898 21.0526 4.34987C21.0456 4.39714 21.1546 4.29012 21.15 4.3333C21.1491 4.34226 21.0995 4.3905 21.0949 4.39678C21.0238 4.49536 21.1493 4.38197 21.1547 4.3822C21.2249 4.3824 21.1262 4.53512 21.1774 4.55303C21.1836 4.55504 21.2346 4.48138 21.2484 4.49094C21.3412 4.55428 21.4053 4.65748 21.4326 4.78876C21.4369 4.80908 21.3834 4.8482 21.3786 4.8549C21.3036 4.96015 21.4279 4.84452 21.4362 4.84392C21.4979 4.84239 21.4283 4.97624 21.5877 4.85045C21.6515 5.00049 21.7962 5.06379 21.8521 5.22082L22.0441 5.35926L21.8521 5.66004C21.8157 5.67466 21.774 5.68356 21.7244 5.68405C21.7213 5.68423 21.6668 5.62014 21.6609 5.62076C21.59 5.62762 21.6867 5.71456 21.7702 5.85777C21.7911 5.89375 21.6398 5.77456 21.6284 5.76614C21.5865 5.73504 21.5076 5.63728 21.4986 5.63221C21.4269 5.59331 21.7123 5.8905 21.6887 5.91573C21.6875 5.91601 21.6386 5.85745 21.6315 5.85407C21.6091 5.84337 21.6236 5.87182 21.5997 5.85921C21.5445 5.82987 21.4023 5.68921 21.4611 5.79653C21.4688 5.81039 21.6331 5.97636 21.6044 5.99075C21.5929 5.99634 21.5584 6.03885 21.5375 6.03891C21.5167 6.03897 21.4723 5.97648 21.4693 5.97489C21.3729 5.93218 21.3553 5.89078 21.2401 5.79831C21.1253 5.70623 21.3694 5.95737 21.3905 5.99196C21.4115 6.02648 21.3345 5.9885 21.3099 5.97306C21.2852 5.95762 21.2587 5.91604 21.2432 5.90904C21.1409 5.86375 21.3493 6.04966 21.3776 6.10063C21.4447 6.22119 21.2485 6.05106 21.2098 6.05505C21.1994 6.05615 21.2446 6.09429 21.2433 6.10375C21.2376 6.14066 21.1698 6.09453 21.1977 6.17317C21.2023 6.186 21.2907 6.31962 21.2001 6.24889C21.1871 6.23866 21.1475 6.18633 21.129 6.18493C21.1011 6.18277 21.0682 6.19714 21.0692 6.22763C21.07 6.25017 21.1548 6.31545 21.1192 6.30498C21.1034 6.30028 21.0712 6.24353 21.0449 6.2385C21.0188 6.2334 20.9933 6.26446 20.9844 6.27708C20.9755 6.28973 21.0367 6.34265 21.0396 6.34752C21.0559 6.37567 21.0627 6.42529 21.0609 6.42709C20.9788 6.5287 20.8034 6.51637 20.7479 6.6412C20.7434 6.65091 20.8064 6.70828 20.8064 6.71041C20.8076 6.76115 20.6704 6.57635 20.6021 6.53827C20.7232 6.66196 20.6921 6.6493 20.6888 6.68053C20.6872 6.69569 20.7375 6.73998 20.7415 6.74575C20.7996 6.83239 20.7013 6.74519 20.6807 6.72781C20.6051 6.66391 20.6769 6.7581 20.6263 6.71549C20.576 6.67324 20.5213 6.58941 20.5065 6.607C20.5446 6.65685 20.6673 6.76251 20.6734 6.79431C20.6965 6.91446 20.5254 6.91106 20.4802 6.93987C20.4351 6.96861 20.4313 6.98933 20.3949 6.99535C20.3291 7.0062 20.4255 7.07899 20.4396 7.14414C20.4537 7.20936 20.2624 6.98165 20.2154 6.93894C20.1685 6.89619 20.2097 6.94773 20.1816 6.92668C20.1535 6.90563 20.1329 6.86461 20.1141 6.8654C20.0954 6.86621 20.1463 6.97688 20.1884 7.02898C20.2777 7.13936 20.391 7.23431 20.3296 7.22385C20.326 7.22318 20.2775 7.16141 20.2665 7.16171C20.1804 7.16599 20.131 7.21305 20.0497 7.22231C20.0384 7.2235 19.9847 7.15458 19.9774 7.15456C19.902 7.15411 20.0154 7.24614 20.1059 7.38607C19.9627 7.22404 19.8609 7.13999 19.8315 7.16933C19.8138 7.18691 19.8814 7.2524 19.9158 7.31253C19.9262 7.33064 19.8697 7.2964 19.8979 7.331C19.9899 7.44414 20.1124 7.55007 20.0389 7.53436L19.9243 7.7139L19.6754 7.53436C19.6754 7.53432 19.6754 7.53429 19.6754 7.53426C19.6757 7.53299 19.6831 7.52553 19.6926 7.51605L19.918 7.67857L20.0217 7.51605C20.01 7.5028 19.9949 7.48584 19.9855 7.47756L19.9046 7.60433L19.7288 7.47756C19.7319 7.47359 19.7337 7.47055 19.7335 7.46904C19.7262 7.41557 19.619 7.52226 19.5753 7.50257C19.5411 7.48715 19.561 7.37379 19.5436 7.33335C19.7103 7.15732 19.6461 7.16991 19.5208 7.2804C19.5075 7.25627 19.4816 7.24248 19.48 7.20714C19.4794 7.19503 19.5315 7.14807 19.5359 7.14174C19.6059 7.04274 19.4866 7.15291 19.4783 7.15343C19.3937 7.1538 19.4439 7.0275 19.3211 7.07253C19.3167 7.07417 19.1989 7.19442 19.2725 7.0934C19.2776 7.08649 19.3434 7.04477 19.3285 7.02035C19.3137 6.99591 19.3399 6.89223 19.2601 6.92117C19.2409 6.9281 19.1311 7.01063 19.1914 6.91908C19.1997 6.90669 19.2346 6.8735 19.2506 6.85127C19.3013 6.78035 19.1802 6.89972 19.2699 6.78433C19.3596 6.66895 19.4143 6.56919 19.3194 6.61373C19.3165 6.61495 19.2178 6.70659 19.2109 6.69618C19.2 6.67948 19.2004 6.63894 19.1859 6.62482C19.179 6.6181 19.1258 6.68366 19.1236 6.68355C19.0467 6.67025 19.0661 6.58201 19.0404 6.5075C19.0358 6.49372 18.9323 6.55015 18.9772 6.46627C19.0263 6.3744 19.3274 6.0951 19.2174 6.12091C19.1732 6.13108 18.7936 6.488 18.9478 6.25797C18.8416 6.2427 18.8807 6.08262 18.7547 6.08805C18.749 6.08825 18.6406 6.18522 18.6356 6.17698C18.6283 6.16454 18.6698 6.10941 18.666 6.09894C18.6517 6.05383 18.5858 6.06864 18.5646 6.03294C18.5565 6.0195 18.6084 5.97208 18.5987 5.95604C18.5889 5.94006 18.5172 5.9988 18.531 5.94834C18.5418 5.91001 18.6589 5.75852 18.6572 5.72454C18.5285 5.86 18.5196 5.84491 18.4652 5.85901C18.4547 5.86179 18.4144 5.91367 18.4071 5.91743C18.3765 5.93377 18.4064 5.88702 18.3742 5.90594C18.3664 5.91045 18.3226 5.95686 18.3138 5.96318C18.2372 6.01867 18.3155 5.89271 18.3291 5.87083C18.381 5.78761 18.3179 5.8415 18.3334 5.80348C18.3488 5.76547 18.396 5.74755 18.3997 5.71843C18.4073 5.65817 18.3687 5.63215 18.3458 5.60352C18.3364 5.59238 18.2848 5.66166 18.2821 5.6615C18.2467 5.65538 18.288 5.56726 18.1603 5.67876C18.4468 5.34396 18.1187 5.69658 18.1495 5.60135C18.1521 5.59371 18.2914 5.43942 18.3211 5.42668C18.3509 5.41396 18.3199 5.47554 18.3648 5.45406C18.3753 5.44905 18.5253 5.32519 18.5357 5.31904C18.6167 5.27099 18.4067 5.49957 18.396 5.51298C18.2807 5.65827 18.4447 5.52741 18.46 5.52259C18.5301 5.50046 18.5212 5.55447 18.5742 5.54189C18.6087 5.53393 18.7492 5.38737 18.7555 5.40314C18.7766 5.4555 18.5947 5.67496 18.7962 5.53122C18.8393 5.50061 18.9843 5.33138 18.8902 5.48562C18.8842 5.49533 18.7937 5.63176 18.8738 5.56979C18.8839 5.56197 18.9282 5.5148 18.9338 5.51276C18.97 5.50004 18.9428 5.54619 18.9729 5.54224C19.003 5.5383 19.0441 5.52838 19.0442 5.56039C19.0443 5.57961 18.9733 5.67982 18.9574 5.70594C18.9115 5.78093 19.0202 5.69339 18.9572 5.77648C18.894 5.86001 18.7713 5.95852 18.7456 6.02861C18.8615 5.90696 18.9815 5.7831 19.0986 5.66123C19.1386 5.71243 19.1448 5.79815 19.1941 5.83978C19.2003 5.84482 19.2567 5.77303 19.2649 5.77673C19.2996 5.79265 19.2771 5.86262 19.3204 5.87128C19.3542 5.87774 19.4416 5.83126 19.479 5.83584C19.3599 5.98948 19.4355 5.97476 19.446 6.01144C19.4497 6.02422 19.4139 6.06108 19.408 6.07924C19.3867 6.14682 19.4933 6.01249 19.5174 5.99915C19.6204 5.94238 19.3589 6.22489 19.3947 6.24907C19.3965 6.25044 19.556 6.1212 19.5673 6.11467C19.641 6.07164 19.5212 6.16958 19.5212 6.19165C19.5211 6.23197 19.5007 6.28164 19.5641 6.26152C19.5828 6.25545 19.686 6.17887 19.6308 6.26427C19.6236 6.27546 19.5762 6.32387 19.5748 6.32818C19.5536 6.40203 19.7002 6.24755 19.7635 6.20966C19.8267 6.17179 19.7472 6.30153 19.7225 6.33701C19.6587 6.42892 19.6817 6.3619 19.6737 6.36908C19.5788 6.45467 19.6094 6.45513 19.6139 6.47562C19.4724 6.62958 19.4976 6.63809 19.619 6.49626C19.6323 6.48074 19.6097 6.48511 19.6139 6.47562C19.7647 6.33744 19.8009 6.33772 19.6899 6.49862C19.6378 6.57401 19.5571 6.64076 19.612 6.64333C19.6369 6.64456 19.7304 6.53448 19.7688 6.51811C19.8563 6.48082 19.7984 6.61475 19.8399 6.62808C19.855 6.63292 19.8994 6.56542 19.9116 6.56675C19.944 6.5701 19.9192 6.6298 19.9578 6.62676C19.9614 6.62641 20.0139 6.56218 20.0202 6.56733C20.0689 6.60513 20.0694 6.68256 20.1123 6.73038C20.1331 6.75345 20.2023 6.76073 20.218 6.79079C20.2358 6.8241 20.2276 6.89284 20.2335 6.94116L19.4808 6.94116C19.506 6.93769 19.5252 6.92963 19.5297 6.90974C19.5382 6.87357 19.4771 6.8185 19.4477 6.76791C19.3907 6.66994 19.5554 6.77889 19.5803 6.79643C19.5811 6.79702 19.5761 6.83062 19.6149 6.85106C19.681 6.90924 19.5803 6.79693 19.5803 6.79643C19.5964 6.80771 19.6458 6.7825 19.6422 6.76331C19.6403 6.75285 19.5846 6.69831 19.5845 6.69393C19.5855 6.59109 19.6209 6.52461 19.6955 6.49853C19.6974 6.49875 19.756 6.56377 19.7598 6.5635C19.8151 6.56129 19.7603 6.46393 19.7404 6.39257C19.7206 6.32123 19.754 6.31676 19.8707 6.4111C19.8756 6.37837 19.9467 6.39943 19.989 6.41307C20.0313 6.4267 19.9168 6.30067 19.9158 6.29684C19.8825 6.17549 19.9726 6.22153 20.025 6.18796C20.0501 6.17221 20.0727 6.11219 20.0816 6.07568C20.0884 6.04663 20.126 6.06472 20.1243 6.02944C20.1241 6.0247 20.07 5.97185 20.0687 5.96903C20.0242 5.8844 20.1425 6.02817 20.1688 6.0484C20.2643 6.12198 20.3163 6.15998 20.3001 6.0949C20.2964 6.07996 20.1289 5.8698 20.1276 5.8484C20.1264 5.82094 20.1872 5.89544 20.1842 5.86491C20.184 5.86236 20.1434 5.81968 20.1531 5.81314C20.1977 5.78217 20.2614 5.76443 20.2957 5.71941C20.3005 5.71342 20.2297 5.65247 20.2357 5.6427C20.2636 5.59692 20.3048 5.55811 20.3694 5.55324C20.3855 5.55226 20.425 5.60559 20.4401 5.61779C20.532 5.69137 20.4311 5.54985 20.4315 5.54466C20.4385 5.4176 20.5929 5.47873 20.6069 5.35656C20.6075 5.34968 20.509 5.18757 20.6287 5.28915C20.6367 5.29589 20.7588 5.40025 20.694 5.30902C20.69 5.30331 20.6258 5.25096 20.6446 5.24331C20.6633 5.23565 20.6463 5.17322 20.7265 5.22047C20.7517 5.23533 20.8749 5.3379 20.8042 5.22693C20.7992 5.21927 20.6272 4.98119 20.7731 5.11653C20.7971 5.13883 20.94 5.29416 20.886 5.19401C20.8755 5.17466 20.8363 5.1478 20.8263 5.11564C20.8107 5.06618 20.87 5.08551 20.8246 4.99681C20.8166 4.98116 20.7326 4.86183 20.8184 4.92893C20.8318 4.93944 20.8767 4.99433 20.8881 4.9937C20.9425 4.99095 20.9401 4.92492 21.0024 4.92966C21.0244 4.93124 21.0972 5.01974 21.1288 5.03061C21.1604 5.04147 21.202 5.03996 21.1775 4.99018C21.153 4.94039 21.0165 4.8212 21.0233 4.79282C21.0241 4.78918 21.0251 4.78565 21.0262 4.78222L21.0262 6.09864C20.9201 6.06123 20.9191 5.91345 20.8589 5.82744C20.8497 5.81429 20.8141 5.87108 20.7974 5.85509C20.7355 5.79633 20.5926 5.73315 20.6363 5.57862C20.6713 5.45483 20.7802 5.44804 20.7799 5.3822C20.7796 5.35061 20.6188 5.48699 20.6106 5.48797C20.5289 5.49946 20.5683 5.40523 20.5168 5.39222C20.5061 5.38956 20.454 5.4587 20.4456 5.45574C20.4163 5.4462 20.4223 5.39702 20.3992 5.38266C20.3888 5.37637 20.3455 5.42554 20.3414 5.41384C20.3311 5.3864 20.3339 5.34943 20.3583 5.28613C20.3605 5.28036 20.427 5.23269 20.4157 5.21629C20.3972 5.1899 20.4118 5.11738 20.3442 5.13634C20.3239 5.14216 20.2213 5.25056 20.2761 5.15861C20.2875 5.13939 20.4146 5.01337 20.29 5.1065C20.2692 5.12194 20.095 5.24106 20.1721 5.12679C20.1923 5.09671 20.2826 4.97898 20.2579 4.98633C20.2542 4.98773 20.204 5.05125 20.1913 5.04912C20.1475 5.04061 20.1261 5.00549 20.0823 4.99547C20.0705 4.9929 20.0242 5.06459 20.0084 5.05884C19.9649 5.04312 19.9429 4.98904 19.9322 4.93982C19.9284 4.92155 19.9827 4.87922 19.9871 4.87296C20.0582 4.77129 19.9384 4.88315 19.9277 4.88578C19.863 4.90054 19.8966 4.82382 19.8592 4.81381C19.849 4.81089 19.7999 4.87278 19.7939 4.8765C19.7338 4.912 19.8401 4.82016 19.8422 4.7999C19.8487 4.7428 19.818 4.71937 19.7872 4.70124C19.7758 4.69466 19.7235 4.77127 19.714 4.76461C19.6566 4.72641 19.6141 4.66853 19.6028 4.58369C19.6008 4.56759 19.6541 4.52241 19.6633 4.50889C19.7275 4.41444 19.6051 4.50623 19.591 4.51238C19.5267 4.54058 19.5617 4.48776 19.5371 4.47844C19.4163 4.43369 19.3437 4.29696 19.2842 4.1968C19.2782 4.18684 19.2725 4.17687 19.267 4.16692L20.4473 4.16692C20.3342 4.23721 20.2231 4.27446 20.1458 4.37987C20.1404 4.38706 20.2103 4.44828 20.2064 4.45535C20.1542 4.54352 20.0628 4.58778 20.0134 4.67933C20.0093 4.68672 20.0777 4.74241 20.0731 4.75644C20.0639 4.78565 20.0375 4.8068 19.9997 4.80596C19.9814 4.80567 19.9416 4.73771 19.9243 4.73855C19.8837 4.74037 19.8567 4.7599 19.8447 4.79328C19.8397 4.80762 19.9154 4.85847 19.9041 4.872C19.8284 4.96551 19.7586 5.06226 19.5959 5.06514C19.5847 5.06533 19.4542 4.93715 19.4662 4.97556C19.5002 5.01357 19.5412 5.05708 19.5781 5.09709C19.479 5.24507 19.3175 5.32415 19.1913 5.444C19.186 5.44907 19.2612 5.51053 19.2513 5.52071C19.1938 5.57966 19.1574 5.65752 19.0336 5.64861C19.0214 5.64782 18.9073 5.52029 18.9081 5.55705C18.9083 5.56365 18.8985 5.60727 18.9173 5.64126C18.9203 5.64629 18.9796 5.69942 18.9729 5.70982C18.9336 5.76926 18.8712 5.80904 18.7903 5.82408C18.7772 5.8264 18.7272 5.75588 18.7173 5.75699C18.6476 5.76537 18.6497 5.85719 18.5598 5.84041C18.4995 5.82895 18.4081 5.71231 18.2959 5.62109C18.2801 5.60823 18.2625 5.62219 18.2041 5.56182C18.0572 5.41005 17.9061 5.23359 17.7487 5.07275C17.7148 5.03809 17.73 5.09801 17.6618 4.99967C17.6573 4.99305 17.6455 4.94886 17.622 4.91598C17.6057 4.89323 17.5425 4.83587 17.5236 4.80469C17.5047 4.77353 17.5595 4.81962 17.5398 4.78031C17.5198 4.74062 17.4493 4.67383 17.4587 4.64711ZM20.1786 6.47349C20.2482 6.51846 20.0452 6.29849 20.0795 6.36629C20.0814 6.36983 20.1751 6.47132 20.1786 6.47349ZM18.9899 5.9622C18.9174 6.07724 19.0625 5.94894 19.1197 5.86136C19.1769 5.77386 19.0119 5.92729 18.9899 5.9622ZM18.7389 5.83571C18.6885 5.93362 18.9824 5.62821 18.9013 5.66692C18.8967 5.66907 18.7418 5.83001 18.7389 5.83571ZM18.3288 5.52619C18.3259 5.5235 18.3122 5.53241 18.3147 5.53556C18.3739 5.61099 18.4012 5.59313 18.3288 5.52619ZM18.4835 5.71695C18.4507 5.76565 18.5148 5.73734 18.5556 5.67678C18.5884 5.62806 18.5243 5.65635 18.4835 5.71695ZM21.1092 5.94933C21.1125 5.95235 21.1231 5.94686 21.1057 5.92868C21.0496 5.87016 21.0543 5.89854 21.1092 5.94933ZM18.1681 5.38886C18.2033 5.44949 17.9911 5.73436 17.968 5.65221C17.9638 5.63734 18.0642 5.59166 18.0742 5.55636C18.0925 5.49194 17.9277 5.63721 17.9869 5.5284C17.9977 5.50853 18.1666 5.38483 18.1685 5.38859C18.1684 5.38868 18.1682 5.38877 18.1681 5.38886ZM20.4326 6.72679C20.4356 6.72938 20.4491 6.72047 20.4467 6.71733C20.3876 6.64187 20.3603 6.65978 20.4326 6.72679ZM21.6976 5.59333C21.704 5.59883 21.7348 5.57755 21.7303 5.57102C21.6372 5.44383 21.5746 5.48651 21.6976 5.59333ZM19.5476 7.32817C19.4701 7.38504 19.4481 7.37804 19.5208 7.28055C19.5283 7.29781 19.5396 7.3112 19.5476 7.32817Z" fill="#FF7F65"/>
<path d="M9.96076 14.7049C10.0353 14.5877 10.1756 14.4792 10.2938 14.4092C10.3308 14.3872 10.3525 14.4413 10.3797 14.4278C10.4328 14.4014 10.4513 14.3439 10.5066 14.3209C10.5251 14.3134 10.5668 14.3915 10.5848 14.3823C10.6836 14.3314 10.7383 14.2421 10.8248 14.1761C11.2509 13.8515 11.6321 13.4922 12.0286 13.1265C12.1593 13.0059 12.36 12.9036 12.4632 12.7453C12.4752 12.7268 12.416 12.6825 12.4146 12.6751C12.3948 12.5606 12.4822 12.6845 12.5244 12.6684C12.6917 12.6043 12.823 12.4747 12.913 12.3375C12.9512 12.279 12.8042 12.222 12.9074 12.232C12.9145 12.2326 12.9563 12.3022 12.9748 12.2946C13.0166 12.2775 13.062 12.2089 13.0888 12.1895C13.1405 12.1525 13.1471 12.1443 13.1887 12.1014C13.246 12.0433 13.3392 12.0008 13.3872 11.9241C13.3972 11.9075 13.3253 11.8671 13.3364 11.8355C13.3475 11.8038 13.4063 11.7512 13.4375 11.7456C13.4687 11.7399 13.5042 11.7941 13.5173 11.8012C13.6275 11.8618 13.5743 11.6722 13.5795 11.6606C13.6777 11.4526 13.8696 11.3888 14.0074 11.242C14.1118 11.1304 14.202 10.9882 14.3046 10.8855C14.427 10.7634 14.5574 10.6881 14.6676 10.5601C14.6793 10.5467 14.6004 10.4931 14.6145 10.4766C14.7649 10.3008 14.9288 10.1416 15.1296 10.0209C15.1498 10.0088 15.1863 10.0907 15.2099 10.0823C15.3529 10.0294 15.6176 9.98626 15.4278 9.66274C15.5028 9.60356 15.592 9.52985 15.7003 9.52067C15.77 9.51469 15.7953 9.61931 15.8152 9.54207C15.8197 9.52472 15.752 9.4816 15.763 9.45995C15.8091 9.36881 15.8987 9.31097 15.9359 9.21192C15.9434 9.19164 15.8912 9.14393 15.8863 9.13065C15.8471 9.02187 16.0166 9.0903 16.0366 9.08715C16.1873 9.06173 16.2261 8.96747 16.3089 8.88269C16.3282 8.86304 16.2407 8.81748 16.2569 8.79609C16.3417 8.68607 16.4449 8.58834 16.566 8.52106C16.5931 8.50626 16.6298 8.58531 16.6456 8.58126C16.7145 8.56268 16.6192 8.44105 16.6833 8.42108C16.6967 8.41672 16.7393 8.47247 16.7461 8.47631C16.853 8.53688 16.7586 8.39046 16.7625 8.38091C16.7863 8.31714 16.844 8.30595 16.9026 8.29604L17.0882 8.06305L17.3472 8.29604C17.3559 8.35441 17.3635 8.41368 17.4098 8.44516C17.4213 8.45282 17.4603 8.36643 17.4891 8.39187C17.6814 8.56094 17.8507 8.77597 17.9764 9.01191C17.9961 9.0485 17.9316 9.076 17.9278 9.08372C17.8685 9.20567 18.003 9.10084 18.0162 9.10554C18.1173 9.14587 18.0846 9.31882 18.2707 9.22147C18.4683 9.51376 18.7464 9.71879 18.9352 10.0171L19.1389 10.2005L18.9352 10.4563C18.866 10.5057 18.7916 10.5494 18.7093 10.5846C18.7041 10.587 18.6534 10.5189 18.6434 10.524C18.5219 10.5846 18.6283 10.6612 18.6784 10.84C18.6909 10.8849 18.5139 10.7929 18.5002 10.7869C18.4501 10.7646 18.3798 10.6577 18.368 10.6556C18.2735 10.641 18.5625 10.9343 18.5081 10.9923C18.5059 10.9936 18.4611 10.9307 18.4514 10.9301C18.4209 10.9279 18.4275 10.9649 18.3957 10.9606C18.3224 10.9505 18.1738 10.8166 18.2051 10.9532C18.2093 10.9708 18.3789 11.1311 18.3227 11.1748C18.3001 11.192 18.217 11.2862 18.1825 11.3008C18.1481 11.3153 18.113 11.2429 18.1091 11.2423C17.976 11.2386 17.9723 11.1824 17.8387 11.1095C17.7056 11.037 17.9548 11.2827 17.9683 11.3252C17.9818 11.3677 17.878 11.3583 17.8467 11.3499C17.8155 11.3415 17.7972 11.2912 17.7758 11.2904C17.6345 11.2865 17.8648 11.4492 17.8802 11.5138C17.9171 11.6665 17.6973 11.5214 17.631 11.5549C17.613 11.5639 17.6644 11.5956 17.6564 11.6121C17.6242 11.6771 17.5406 11.6479 17.5384 11.7585C17.5381 11.7766 17.6022 11.936 17.4958 11.882C17.4806 11.8741 17.4474 11.8151 17.4175 11.8257C17.3729 11.8414 17.3097 11.888 17.2925 11.9377C17.2799 11.9744 17.3801 12.0234 17.3277 12.0308C17.3044 12.0341 17.286 11.9626 17.2458 11.9725C17.2056 11.9822 17.1445 12.0512 17.1219 12.0783C17.0995 12.1053 17.1681 12.1504 17.1699 12.1564C17.1796 12.1916 17.1604 12.2689 17.1563 12.2731C16.9582 12.498 16.6758 12.5994 16.5074 12.8442C16.4941 12.8634 16.563 12.9145 16.5616 12.918C16.5325 13.001 16.4192 12.7908 16.3297 12.7752C16.4538 12.8957 16.4103 12.8963 16.3855 12.9503C16.3737 12.9764 16.4296 13.0147 16.4326 13.0215C16.4755 13.1243 16.3665 13.0484 16.3432 13.034C16.2575 12.9808 16.3183 13.0867 16.2607 13.0514C16.2036 13.0165 16.1648 12.9158 16.1294 12.9552C16.1618 13.0111 16.2997 13.1006 16.2903 13.149C16.2547 13.3315 15.974 13.4446 15.8816 13.5236C15.7893 13.6024 15.7703 13.6393 15.7064 13.6745C15.5911 13.7381 15.7056 13.7915 15.6889 13.8894C15.6721 13.9875 15.4959 13.7438 15.4445 13.7058C15.3932 13.6677 15.4296 13.7243 15.3961 13.709C15.3626 13.6937 15.3537 13.6402 15.3222 13.6545C15.2908 13.6689 15.3069 13.8165 15.3445 13.8734C15.4243 13.9939 15.5533 14.0722 15.4582 14.0975C15.4527 14.0989 15.4105 14.0304 15.392 14.0386C15.2471 14.1054 15.1366 14.2174 14.9965 14.2892C14.9771 14.2989 14.9306 14.2224 14.9187 14.2273C14.7942 14.279 14.9251 14.3524 14.9888 14.5208C14.8516 14.3524 14.735 14.2841 14.6684 14.353C14.6284 14.3943 14.6998 14.4557 14.7197 14.5312C14.7258 14.5539 14.6535 14.5365 14.6788 14.5741C14.7614 14.6974 14.8988 14.7875 14.7869 14.8124C14.7818 14.8134 14.7369 14.7456 14.7234 14.753C14.6355 14.8006 14.7314 14.9194 14.6723 15.0089C14.6259 15.0791 14.4627 15.1181 14.3884 15.1752C14.2235 14.9971 14.2012 15.1018 14.2912 15.2496C14.245 15.2888 14.2066 15.3433 14.1507 15.3692C14.1314 15.3781 14.0924 15.3173 14.0855 15.3136C13.9772 15.2554 14.0706 15.393 14.066 15.4072C14.0113 15.5556 13.8477 15.55 13.8376 15.7363C13.8372 15.7429 13.9474 15.8713 13.8383 15.8081C13.8309 15.8036 13.809 15.7152 13.7613 15.7572C13.7136 15.7993 13.5695 15.8209 13.5624 15.9421C13.5606 15.9714 13.6173 16.1104 13.5143 16.0642C13.5004 16.0579 13.4716 16.018 13.4475 16.0045C13.3703 15.9618 13.4768 16.0966 13.356 16.0143C13.2351 15.932 13.1156 15.9012 13.123 16.0388C13.123 16.043 13.201 16.1567 13.1804 16.1755C13.1473 16.2055 13.0845 16.2313 13.0531 16.266C13.0381 16.2826 13.1053 16.3332 13.1037 16.3372C13.0328 16.4809 12.9083 16.5045 12.7756 16.5982C12.7512 16.6153 12.7714 16.7603 12.6703 16.7362C12.5594 16.7099 12.3217 16.3632 12.29 16.5397C12.277 16.6107 12.5842 17.0445 12.3272 16.9237C12.2591 17.0675 12.1214 17.1253 12.0234 17.2311L12.1478 17.2311C12.1112 17.1928 12.0684 17.1602 12.0133 17.1391C12.0041 17.1355 11.8845 17.2205 11.8711 17.2034C11.8514 17.1778 11.8861 17.1155 11.8735 17.0956C11.8221 17.0111 11.7223 16.9898 11.6654 16.9161C11.6436 16.8883 11.7003 16.8459 11.6744 16.8126C11.6485 16.7795 11.5659 16.8268 11.5579 16.753C11.552 16.6971 11.6527 16.528 11.629 16.4706C11.4994 16.6052 11.4754 16.5741 11.3942 16.5597C11.3786 16.557 11.3437 16.6147 11.334 16.6159C11.2935 16.6217 11.3142 16.5652 11.2726 16.5741C11.2625 16.5762 11.2186 16.6224 11.2079 16.6268C11.1153 16.6653 11.1674 16.5115 11.1765 16.4848C11.2111 16.3832 11.1399 16.4285 11.1421 16.3764C11.1444 16.3243 11.2113 16.3274 11.1996 16.2819C11.1751 16.1875 11.0954 16.1177 11.0399 16.0545C11.0175 16.0296 10.9747 16.1083 10.9702 16.1061C10.9079 16.0715 10.9221 15.9545 10.7795 16.0502C11.0473 15.6956 10.7217 16.0508 10.7141 15.9147C10.7137 15.9039 10.8491 15.7455 10.8905 15.7451C10.9318 15.7447 10.9185 15.825 10.9794 15.8206C10.9938 15.8197 11.1657 15.7191 11.179 15.7161C11.2833 15.6928 11.0767 15.9249 11.0672 15.9397C10.9659 16.0998 11.1567 15.9974 11.179 16C11.2812 16.0121 11.2996 16.0951 11.3796 16.1112C11.4316 16.1219 11.5739 15.9772 11.594 16.0076C11.661 16.1088 11.4951 16.3453 11.74 16.2476C11.7923 16.2268 11.9281 16.0478 11.8672 16.2374C11.8634 16.2493 11.7975 16.412 11.8919 16.3652C11.9038 16.3593 11.9481 16.312 11.956 16.3125C12.008 16.3166 11.9913 16.374 12.0387 16.3884C12.0861 16.4028 12.148 16.4149 12.1677 16.4678C12.1797 16.4997 12.1239 16.616 12.1137 16.6482C12.0838 16.7403 12.2097 16.671 12.1567 16.7646C12.1035 16.8588 11.9612 16.9365 11.9618 17.0345C12.0787 16.9139 12.2009 16.7924 12.3195 16.6722C12.3765 16.7378 12.4216 16.8148 12.4706 16.888L11.7006 16.888C11.7498 16.8508 11.7972 16.8116 11.8376 16.7641C11.8495 16.7499 11.7746 16.6978 11.7858 16.6808C11.8332 16.6096 11.9273 16.6034 11.9691 16.5216C12.0012 16.4581 11.9859 16.3349 12.0175 16.2662C12.1786 16.3752 12.2051 16.2519 12.269 16.2096C12.2913 16.1948 12.3253 16.2335 12.3496 16.232C12.4408 16.2254 12.3015 16.1258 12.2965 16.0922C12.2755 15.9482 12.5441 16.2232 12.605 16.1446C12.6083 16.1405 12.5115 15.9447 12.5088 15.929C12.4899 15.8277 12.564 15.9743 12.5983 15.9599C12.661 15.9336 12.7249 15.937 12.735 15.8387C12.7378 15.8099 12.686 15.6787 12.7828 15.7198C12.7955 15.7252 12.8399 15.7768 12.8457 15.7765C12.9467 15.7655 12.8021 15.6088 12.7845 15.5225C12.7669 15.4361 12.9168 15.491 12.9558 15.5113C13.0571 15.5633 12.9679 15.5667 12.9738 15.576C13.0449 15.687 13.0657 15.6329 13.1004 15.6116C13.2475 15.7596 13.2772 15.7097 13.1359 15.589C13.1204 15.5759 13.1125 15.6127 13.1004 15.6116C12.984 15.4368 13.0081 15.373 13.1858 15.4631C13.2691 15.5054 13.3202 15.6034 13.3601 15.5053C13.3782 15.4609 13.2681 15.3684 13.2676 15.3118C13.2668 15.1824 13.4373 15.1966 13.4851 15.1149C13.5025 15.0853 13.4265 15.0514 13.4365 15.0292C13.4629 14.97 13.5396 14.9746 13.56 14.9087C13.5618 14.9027 13.4962 14.8524 13.5083 14.838C13.5989 14.7278 13.7196 14.6763 13.822 14.5696C13.8715 14.518 13.928 14.3918 13.985 14.3445C14.0835 14.2622 14.2738 14.2344 14.329 14.1333C14.3653 14.0677 14.298 14.0191 14.2806 13.9558C14.2465 13.8335 14.4519 13.8992 14.4822 13.911C14.4832 13.9114 14.4543 13.9704 14.5058 13.9773C14.5793 14.0276 14.482 13.9118 14.4822 13.911C14.5019 13.9184 14.599 13.8425 14.6049 13.8132C14.6081 13.7973 14.5495 13.7458 14.5522 13.7386C14.617 13.568 14.7163 13.4335 14.8555 13.3387C14.8586 13.3377 14.9155 13.4045 14.922 13.4014C15.0148 13.3594 14.9839 13.2365 14.995 13.1323C15.0061 13.0282 15.0639 12.9976 15.199 13.0725C15.2272 13.015 15.3317 13.0006 15.3932 12.9937C15.4548 12.9869 15.343 12.858 15.3437 12.8524C15.3632 12.6749 15.4838 12.6885 15.5909 12.5967C15.6421 12.5533 15.7164 12.4383 15.7535 12.3718C15.7826 12.3191 15.8336 12.3229 15.8524 12.2658C15.855 12.2581 15.7982 12.2082 15.7977 12.2045C15.7761 12.0955 15.8834 12.251 15.9144 12.2662C16.0271 12.3216 16.0897 12.3483 16.1028 12.252C16.1059 12.2299 15.9581 11.9987 15.9692 11.9642C15.984 11.9197 16.0388 12.0006 16.0526 11.9523C16.0538 11.9482 16.0129 11.9058 16.033 11.8883C16.1257 11.8061 16.2419 11.7326 16.3262 11.6344C16.3379 11.6212 16.2583 11.5695 16.2741 11.5493C16.3483 11.4543 16.4404 11.3615 16.5501 11.3086C16.5773 11.2958 16.6098 11.3566 16.6274 11.3662C16.7341 11.4241 16.6541 11.2602 16.658 11.2514C16.7476 11.0365 16.9653 11.0304 17.0636 10.8187C17.0687 10.8069 17.0055 10.6073 17.1409 10.6922C17.15 10.6978 17.2876 10.7856 17.2367 10.6797C17.2335 10.6731 17.1596 10.631 17.1953 10.6054C17.231 10.5797 17.2413 10.4883 17.3447 10.5108C17.3773 10.5179 17.5179 10.6019 17.4692 10.4676C17.4656 10.4584 17.3275 10.1842 17.4856 10.3067C17.5115 10.3269 17.6524 10.4844 17.6247 10.3564C17.6192 10.3317 17.5708 10.3145 17.574 10.2683C17.5787 10.1973 17.6648 10.1882 17.6443 10.073C17.6406 10.0528 17.5751 9.91381 17.6757 9.96516C17.6915 9.9732 17.732 10.0328 17.7512 10.0238C17.8428 9.98153 17.8793 9.8741 17.9794 9.83869C18.0148 9.82605 18.0807 9.92181 18.1263 9.91786C18.1718 9.91389 18.2415 9.88252 18.2317 9.81722C18.2218 9.75191 18.0692 9.64968 18.0979 9.59805C18.1016 9.59143 18.1054 9.58492 18.1093 9.57851L18.1093 10.8949C17.911 10.7595 17.8185 10.5145 17.6662 10.3306C17.6429 10.3025 17.619 10.3717 17.5815 10.3336C17.4431 10.1935 17.1681 9.98997 17.1454 9.76488C17.1272 9.58455 17.3031 9.64891 17.2621 9.53987C17.2422 9.48743 17.0602 9.60126 17.0472 9.59721C16.9193 9.55954 16.9266 9.43113 16.8334 9.37388C16.8142 9.36208 16.7705 9.44018 16.7547 9.42945C16.7004 9.39334 16.6802 9.31624 16.6332 9.2765C16.612 9.25882 16.5708 9.31009 16.5568 9.28792C16.5365 9.2565 16.5219 9.2227 16.5138 9.18182L17.736 9.18182C17.7102 9.18765 17.6814 9.1904 17.6482 9.18983C17.6407 9.1897 17.61 9.104 17.5771 9.13456C17.524 9.18418 17.4207 9.20601 17.4061 9.31242C17.4019 9.34418 17.5035 9.4536 17.3963 9.41743C17.3739 9.4099 17.2608 9.26895 17.3243 9.42706C17.3348 9.45343 17.4063 9.68168 17.2789 9.62098C17.2453 9.60502 17.1212 9.52336 17.1165 9.56191C17.1162 9.56754 17.1823 9.61411 17.1707 9.63784C17.1288 9.72045 17.0603 9.78083 17.016 9.86442C17.0043 9.88685 17.0856 9.92131 17.0664 9.95282C17.0135 10.0396 16.9151 10.1134 16.8315 10.1644C16.8006 10.183 16.7703 10.1152 16.7634 10.1116C16.6517 10.0532 16.7474 10.1906 16.7446 10.2075C16.7253 10.3115 16.6279 10.3027 16.5879 10.375C16.5767 10.3948 16.6409 10.4405 16.6427 10.4488C16.6587 10.5311 16.5853 10.4044 16.5552 10.4138C16.4706 10.4398 16.4141 10.509 16.3659 10.5749C16.3482 10.5991 16.4332 10.6411 16.4166 10.6621C16.3198 10.7878 16.202 10.9004 16.0627 10.9755C16.0363 10.9895 16.0009 10.9254 15.9858 10.9181C15.8809 10.867 15.9437 11.0222 15.944 11.0429C15.9459 11.1375 15.8866 11.1104 15.8561 11.1597C15.7076 11.4012 15.4476 11.6179 15.253 11.7879C14.9996 12.0098 14.7748 12.1519 14.5663 12.3986C14.553 12.4143 14.6308 12.467 14.6201 12.4813C14.4797 12.6633 14.3013 12.7999 14.1636 12.9855C14.1521 13.0006 14.231 13.0451 14.2147 13.0715C14.1817 13.1262 14.125 13.1795 14.0631 13.2043C14.033 13.2165 14.009 13.1318 13.9798 13.1452C13.9116 13.1764 13.855 13.2274 13.8146 13.2909C13.7975 13.3181 13.8915 13.3496 13.8645 13.3798C13.6819 13.5869 13.5072 13.7952 13.2365 13.9129C13.2179 13.9209 13.0808 13.7997 13.0771 13.8548C13.1099 13.8941 13.151 13.9375 13.1873 13.9781C12.9326 14.2914 12.6172 14.5342 12.3349 14.8199C12.323 14.8319 12.4096 14.8813 12.387 14.905C12.2558 15.0423 12.1479 15.1962 11.9486 15.2675C11.9289 15.2746 11.8186 15.143 11.7974 15.2032C11.7938 15.2139 11.7508 15.2928 11.761 15.336C11.7628 15.3422 11.8281 15.3889 11.8108 15.4107C11.7093 15.5362 11.5818 15.6453 11.4388 15.7263C11.4156 15.7392 11.3763 15.6574 11.3592 15.6661C11.239 15.7282 11.186 15.8786 11.0478 15.9132C10.955 15.9361 10.8756 15.8068 10.7463 15.7338C10.728 15.7236 10.6904 15.7588 10.631 15.6995C10.4814 15.5506 10.34 15.3638 10.1786 15.2072C10.1438 15.1735 10.1322 15.2619 10.0799 15.1467C10.0765 15.1389 10.0842 15.074 10.0654 15.036C10.0525 15.0097 9.98329 14.9588 9.97119 14.9203C9.95911 14.8819 10.0214 14.9201 10.013 14.8688C10.0042 14.8171 9.92885 14.7556 9.96076 14.7049ZM15.6694 12.9621C15.7569 12.9881 15.5566 12.7653 15.5716 12.8536C15.5725 12.8581 15.6651 12.9609 15.6694 12.9621ZM11.8947 17.0429C12.0262 17.0953 11.9214 16.9241 11.8226 16.8807C11.7238 16.8374 11.8547 17.0271 11.8947 17.0429ZM11.8323 16.7111C11.8091 16.8379 12.1073 16.5371 11.997 16.5448C11.9907 16.5451 11.8336 16.7037 11.8323 16.7111ZM10.8589 15.5541C10.8558 15.5517 10.8277 15.5759 10.8298 15.5795C10.8813 15.663 10.9375 15.6145 10.8589 15.5541ZM11.3371 16.3375C11.3128 16.3953 11.4014 16.393 11.4316 16.3212C11.4559 16.2634 11.3673 16.2657 11.3371 16.3375ZM17.5296 11.4499C17.5332 11.4527 17.5542 11.4362 17.5365 11.4182C17.4797 11.3605 17.47 11.4041 17.5296 11.4499ZM10.6143 15.5764C10.7097 15.701 10.534 16.0247 10.4454 15.8728C10.4293 15.8454 10.5671 15.8395 10.5621 15.7881C10.5527 15.6943 10.3695 15.8201 10.4005 15.6813C10.4062 15.656 10.6094 15.5687 10.6148 15.5762C10.6147 15.5763 10.6145 15.5764 10.6143 15.5764ZM15.9337 13.2045C15.9371 13.2067 15.9649 13.1826 15.9628 13.1791C15.9114 13.0954 15.8553 13.1439 15.9337 13.2045ZM18.7208 10.4532C18.728 10.4579 18.792 10.4013 18.7886 10.3937C18.7128 10.2481 18.5831 10.3621 18.7208 10.4532ZM14.383 15.1715C14.4209 15.2704 14.3956 15.3136 14.2914 15.2496C14.3232 15.2251 14.3514 15.1965 14.383 15.1715Z" fill="#FF7F65"/>
<path d="M12.4901 17.3934C12.5646 17.2762 12.7049 17.1677 12.8231 17.0977C12.8601 17.0756 12.8818 17.1298 12.909 17.1163C12.9621 17.0899 12.9806 17.0324 13.0359 17.0094C13.0544 17.0019 13.0961 17.0799 13.1141 17.0707C13.2129 17.0198 13.2676 16.9306 13.3541 16.8646C13.7802 16.5399 14.1614 16.1807 14.5579 15.815C14.6886 15.6944 14.8893 15.5921 14.9925 15.4338C15.0045 15.4153 14.9453 15.3709 14.9439 15.3635C14.9241 15.2491 15.0115 15.373 15.0537 15.3569C15.221 15.2928 15.3523 15.1631 15.4423 15.026C15.4805 14.9675 15.3335 14.9105 15.4367 14.9205C15.4438 14.9211 15.4856 14.9906 15.5041 14.9831C15.5459 14.966 15.5913 14.8973 15.6181 14.878C15.6698 14.841 15.6764 14.8328 15.718 14.7899C15.7753 14.7318 15.8685 14.6893 15.9165 14.6126C15.9265 14.596 15.8546 14.5556 15.8657 14.5239C15.8768 14.4923 15.9356 14.4397 15.9668 14.434C15.998 14.4284 16.0335 14.4826 16.0466 14.4897C16.1568 14.5503 16.1036 14.3607 16.1088 14.3491C16.207 14.141 16.3989 14.0772 16.5367 13.9304C16.6411 13.8189 16.7313 13.6767 16.8339 13.574C16.9563 13.4519 17.0867 13.3766 17.1969 13.2486C17.2086 13.2352 17.1297 13.1816 17.1438 13.1651C17.2942 12.9892 17.4581 12.8301 17.6589 12.7093C17.6791 12.6973 17.7156 12.7792 17.7392 12.7708C17.8822 12.7178 18.1469 12.6747 17.9571 12.3512C18.0321 12.292 18.1213 12.2183 18.2296 12.2091C18.2993 12.2032 18.3246 12.3078 18.3445 12.2305C18.349 12.2132 18.2813 12.1701 18.2923 12.1484C18.3384 12.0573 18.428 11.9994 18.4652 11.9004C18.4727 11.8801 18.4205 11.8324 18.4156 11.8191C18.3764 11.7103 18.5459 11.7788 18.5659 11.7756C18.7166 11.7502 18.7554 11.6559 18.8382 11.5712C18.8575 11.5515 18.77 11.506 18.7862 11.4846C18.871 11.3745 18.9742 11.2768 19.0953 11.2095C19.1224 11.1947 19.1591 11.2738 19.1749 11.2697C19.2438 11.2512 19.1485 11.1295 19.2126 11.1096C19.226 11.1052 19.2686 11.1609 19.2754 11.1648C19.3823 11.2254 19.2879 11.0789 19.2918 11.0694C19.3156 11.0056 19.3733 10.9944 19.4319 10.9845L19.6175 10.7515L19.8765 10.9845C19.8852 11.0429 19.8928 11.1022 19.9391 11.1336C19.9506 11.1413 19.9896 11.0549 20.0184 11.0803C20.2107 11.2494 20.38 11.4644 20.5057 11.7004C20.5254 11.737 20.4609 11.7645 20.457 11.7722C20.3978 11.8941 20.5323 11.7893 20.5455 11.794C20.6466 11.8343 20.6138 12.0073 20.7999 11.9099C20.9976 12.2022 21.2757 12.4073 21.4645 12.7056L21.6682 12.8889L21.4645 13.1448C21.3953 13.1942 21.3209 13.2379 21.2386 13.2731C21.2334 13.2755 21.1827 13.2074 21.1727 13.2125C21.0512 13.2731 21.1576 13.3497 21.2077 13.5284C21.2202 13.5734 21.0432 13.4814 21.0295 13.4754C20.9794 13.4531 20.9091 13.3462 20.8973 13.3441C20.8028 13.3295 21.0918 13.6227 21.0374 13.6808C21.0352 13.6821 20.9904 13.6192 20.9807 13.6186C20.9502 13.6164 20.9568 13.6534 20.925 13.6491C20.8517 13.6389 20.7031 13.5051 20.7344 13.6417C20.7386 13.6593 20.9082 13.8196 20.852 13.8633C20.8294 13.8805 20.7463 13.9747 20.7118 13.9893C20.6774 14.0038 20.6423 13.9314 20.6383 13.9308C20.5053 13.9271 20.5016 13.8709 20.368 13.798C20.2349 13.7254 20.4841 13.9712 20.4976 14.0137C20.5111 14.0562 20.4073 14.0468 20.376 14.0384C20.3448 14.03 20.3265 13.9796 20.3051 13.9789C20.1638 13.975 20.3941 14.1377 20.4095 14.2023C20.4464 14.355 20.2266 14.2099 20.1603 14.2433C20.1423 14.2524 20.1937 14.284 20.1857 14.3006C20.1535 14.3656 20.0699 14.3364 20.0677 14.447C20.0674 14.465 20.1315 14.6245 20.0251 14.5705C20.0099 14.5626 19.9767 14.5036 19.9468 14.5141C19.9022 14.5299 19.8389 14.5765 19.8218 14.6262C19.8092 14.6629 19.9094 14.7119 19.857 14.7193C19.8337 14.7226 19.8153 14.6511 19.7751 14.661C19.7349 14.6707 19.6738 14.7397 19.6512 14.7668C19.6288 14.7938 19.6974 14.8389 19.6992 14.8449C19.7089 14.8801 19.6897 14.9574 19.6856 14.9616C19.4875 15.1865 19.2051 15.2879 19.0367 15.5327C19.0234 15.5518 19.0923 15.6029 19.0909 15.6065C19.0618 15.6895 18.9485 15.4793 18.859 15.4637C18.9831 15.5842 18.9395 15.5848 18.9148 15.6387C18.903 15.6648 18.9589 15.7032 18.9619 15.7099C19.0048 15.8128 18.8958 15.7369 18.8725 15.7224C18.7868 15.6693 18.8476 15.7752 18.79 15.7399C18.7329 15.7049 18.6941 15.6043 18.6587 15.6437C18.6911 15.6996 18.829 15.7891 18.8195 15.8374C18.784 16.02 18.5033 16.1331 18.4109 16.2121C18.3186 16.2909 18.2996 16.3278 18.2357 16.363C18.1204 16.4265 18.2349 16.48 18.2182 16.5779C18.2014 16.6759 18.0252 16.4323 17.9738 16.3943C17.9225 16.3562 17.9589 16.4128 17.9254 16.3975C17.8919 16.3822 17.883 16.3287 17.8515 16.343C17.8201 16.3573 17.8362 16.5049 17.8738 16.5618C17.9536 16.6823 18.0825 16.7606 17.9875 16.7859C17.982 16.7873 17.9398 16.7189 17.9213 16.7271C17.7764 16.7939 17.6659 16.9059 17.5258 16.9777C17.5064 16.9874 17.4599 16.9108 17.448 16.9158C17.3235 16.9674 17.4544 17.0408 17.5181 17.2093C17.3809 17.0409 17.2643 16.9726 17.1977 17.0415C17.1577 17.0828 17.2291 17.1442 17.249 17.2197C17.2551 17.2424 17.1828 17.225 17.2081 17.2626C17.2907 17.3859 17.4281 17.476 17.3162 17.5009C17.3111 17.5018 17.2662 17.434 17.2527 17.4414C17.1648 17.4891 17.2607 17.6078 17.2016 17.6974C17.1552 17.7676 16.992 17.8066 16.9177 17.8636C16.7528 17.6856 16.7305 17.7903 16.8205 17.9381C16.7743 17.9773 16.7359 18.0318 16.6799 18.0576C16.6607 18.0666 16.6217 18.0058 16.6147 18.0021C16.5065 17.9438 16.5999 18.0815 16.5953 18.0957C16.5406 18.2441 16.377 18.2384 16.3669 18.4247C16.3665 18.4314 16.4767 18.5598 16.3676 18.4965C16.3602 18.4921 16.3382 18.4037 16.2906 18.4457C16.2429 18.4878 16.0988 18.5094 16.0917 18.6306C16.0899 18.6599 16.1466 18.7989 16.0436 18.7527C16.0297 18.7463 16.0009 18.7065 15.9768 18.693C15.8995 18.6503 16.0061 18.785 15.8853 18.7028C15.7644 18.6205 15.6449 18.5897 15.6523 18.7273C15.6523 18.7315 15.7303 18.8451 15.7097 18.864C15.6766 18.894 15.6138 18.9198 15.5824 18.9545C15.5674 18.9711 15.6346 19.0217 15.633 19.0257C15.5621 19.1694 15.4376 19.193 15.3049 19.2867C15.2805 19.3038 15.3007 19.4488 15.1995 19.4247C15.0887 19.3984 14.851 19.0517 14.8193 19.2282C14.8063 19.2991 15.1135 19.733 14.8565 19.6122C14.7884 19.7559 14.6507 19.8137 14.5527 19.9196L14.6771 19.9196C14.6405 19.8813 14.5977 19.8487 14.5426 19.8276C14.5334 19.824 14.4138 19.909 14.4004 19.8919C14.3807 19.8663 14.4154 19.8039 14.4028 19.7841C14.3514 19.6995 14.2516 19.6783 14.1947 19.6046C14.1729 19.5767 14.2296 19.5344 14.2037 19.5011C14.1778 19.4679 14.0952 19.5152 14.0872 19.4415C14.0813 19.3855 14.1819 19.2165 14.1583 19.1591C14.0287 19.2937 14.0047 19.2626 13.9235 19.2482C13.9078 19.2455 13.873 19.3032 13.8633 19.3044C13.8228 19.3102 13.8435 19.2537 13.8019 19.2625C13.7918 19.2646 13.7479 19.3109 13.7372 19.3152C13.6446 19.3538 13.6967 19.1999 13.7058 19.1733C13.7404 19.0717 13.6692 19.117 13.6714 19.0649C13.6737 19.0128 13.7406 19.0159 13.7289 18.9703C13.7044 18.876 13.6247 18.8062 13.5692 18.743C13.5468 18.7181 13.504 18.7967 13.4995 18.7946C13.4372 18.76 13.4514 18.643 13.3088 18.7386C13.5766 18.384 13.251 18.7392 13.2434 18.6032C13.243 18.5924 13.3784 18.434 13.4198 18.4336C13.4611 18.4332 13.4477 18.5135 13.5087 18.5091C13.5231 18.5082 13.695 18.4075 13.7083 18.4045C13.8126 18.3813 13.6059 18.6134 13.5965 18.6281C13.4952 18.7883 13.686 18.6858 13.7083 18.6885C13.8105 18.7006 13.8289 18.7836 13.9089 18.7996C13.9609 18.8104 14.1032 18.6656 14.1233 18.6961C14.1903 18.7973 14.0244 19.0338 14.2693 18.936C14.3216 18.9153 14.4574 18.7363 14.3965 18.9258C14.3927 18.9378 14.3268 19.1005 14.4212 19.0536C14.4331 19.0477 14.4774 19.0005 14.4853 19.001C14.5373 19.0051 14.5206 19.0624 14.568 19.0768C14.6154 19.0912 14.6773 19.1034 14.697 19.1563C14.709 19.1881 14.6532 19.3045 14.643 19.3367C14.6131 19.4287 14.739 19.3595 14.686 19.4531C14.6328 19.5473 14.4905 19.625 14.4911 19.723C14.608 19.6024 14.7302 19.4809 14.8488 19.3607C14.9058 19.4263 14.9509 19.5033 14.9999 19.5765L14.2299 19.5765C14.2791 19.5393 14.3265 19.5 14.3669 19.4526C14.3788 19.4384 14.3039 19.3863 14.3151 19.3693C14.3625 19.298 14.4566 19.2919 14.4984 19.2101C14.5305 19.1466 14.5152 19.0233 14.5468 18.9547C14.7079 19.0637 14.7344 18.9403 14.7983 18.8981C14.8206 18.8833 14.8546 18.922 14.8789 18.9205C14.9701 18.9139 14.8308 18.8143 14.8258 18.7807C14.8048 18.6367 15.0734 18.9117 15.1343 18.8331C15.1376 18.829 15.0408 18.6332 15.038 18.6175C15.0192 18.5162 15.0933 18.6627 15.1276 18.6483C15.1903 18.6221 15.2542 18.6255 15.2643 18.5272C15.2671 18.4984 15.2153 18.3671 15.3121 18.4083C15.3248 18.4137 15.3692 18.4653 15.375 18.4649C15.476 18.454 15.3314 18.2973 15.3138 18.2109C15.2962 18.1246 15.4461 18.1795 15.4851 18.1998C15.5864 18.2518 15.4972 18.2552 15.5031 18.2645C15.5742 18.3755 15.5949 18.3213 15.6297 18.3001C15.7768 18.448 15.8065 18.3982 15.6652 18.2775C15.6497 18.2644 15.6418 18.3012 15.6297 18.3001C15.5133 18.1253 15.5374 18.0615 15.7151 18.1516C15.7984 18.1938 15.8495 18.2919 15.8893 18.1938C15.9075 18.1494 15.7974 18.0569 15.7969 18.0002C15.7961 17.8708 15.9666 17.885 16.0144 17.8034C16.0318 17.7738 15.9558 17.7399 15.9658 17.7176C15.9922 17.6585 16.0688 17.663 16.0893 17.5972C16.0911 17.5912 16.0255 17.5408 16.0376 17.5265C16.1282 17.4163 16.2489 17.3648 16.3513 17.2581C16.4008 17.2065 16.4573 17.0803 16.5143 17.033C16.6128 16.9507 16.8031 16.9229 16.8583 16.8218C16.8946 16.7561 16.8273 16.7075 16.8099 16.6443C16.7758 16.5219 16.9812 16.5877 17.0115 16.5994C17.0125 16.5999 16.9836 16.6588 17.0351 16.6657C17.1086 16.716 17.0113 16.6002 17.0115 16.5994C17.0312 16.6069 17.1283 16.531 17.1342 16.5017C17.1374 16.4858 17.0788 16.4343 17.0815 16.4271C17.1463 16.2564 17.2455 16.122 17.3848 16.0271C17.3879 16.0262 17.4448 16.093 17.4513 16.0899C17.5441 16.0479 17.5132 15.925 17.5243 15.8208C17.5354 15.7166 17.5932 15.6861 17.7283 15.761C17.7565 15.7035 17.861 15.689 17.9225 15.6822C17.9841 15.6754 17.8723 15.5465 17.873 15.5409C17.8925 15.3634 18.0131 15.377 18.1202 15.2852C18.1714 15.2417 18.2457 15.1268 18.2828 15.0603C18.3119 15.0076 18.3629 15.0114 18.3817 14.9543C18.3843 14.9466 18.3275 14.8967 18.327 14.893C18.3054 14.784 18.4127 14.9395 18.4437 14.9547C18.5564 15.01 18.619 15.0368 18.6321 14.9405C18.6352 14.9183 18.4874 14.6872 18.4985 14.6527C18.5133 14.6082 18.568 14.6891 18.5819 14.6407C18.5831 14.6367 18.5422 14.5943 18.5623 14.5767C18.655 14.4946 18.7712 14.4211 18.8555 14.3229C18.8672 14.3096 18.7876 14.258 18.8034 14.2377C18.8776 14.1427 18.9697 14.0499 19.0794 13.9971C19.1066 13.9843 19.1391 14.0451 19.1567 14.0547C19.2634 14.1125 19.1834 13.9487 19.1873 13.9398C19.2769 13.7249 19.4946 13.7189 19.5928 13.5072C19.598 13.4954 19.5348 13.2958 19.6702 13.3807C19.6793 13.3862 19.8169 13.4741 19.766 13.3682C19.7628 13.3616 19.6889 13.3195 19.7246 13.2939C19.7603 13.2682 19.7706 13.1768 19.874 13.1993C19.9066 13.2063 20.0472 13.2904 19.9985 13.1561C19.9949 13.1469 19.8568 12.8727 20.0149 12.9952C20.0408 13.0154 20.1817 13.1729 20.154 13.0449C20.1485 13.0202 20.1001 13.003 20.1033 12.9568C20.108 12.8858 20.1941 12.8766 20.1736 12.7615C20.1699 12.7412 20.1044 12.6023 20.205 12.6536C20.2208 12.6617 20.2613 12.7212 20.2805 12.7123C20.3721 12.67 20.4086 12.5626 20.5087 12.5272C20.5441 12.5145 20.61 12.6103 20.6556 12.6063C20.7011 12.6024 20.7708 12.571 20.7609 12.5057C20.7511 12.4404 20.5985 12.3382 20.6272 12.2865C20.6309 12.2799 20.6347 12.2734 20.6385 12.267L20.6385 13.5834C20.4403 13.448 20.3478 13.203 20.1955 13.0191C20.1722 12.9909 20.1483 13.0601 20.1108 13.0221C19.9724 12.882 19.6974 12.6784 19.6747 12.4534C19.6565 12.273 19.8324 12.3374 19.7914 12.2283C19.7715 12.1759 19.5895 12.2897 19.5765 12.2857C19.4486 12.248 19.4559 12.1196 19.3627 12.0624C19.3435 12.0506 19.2998 12.1287 19.284 12.1179C19.2297 12.0818 19.2095 12.0047 19.1625 11.965C19.1413 11.9473 19.1001 11.9986 19.0861 11.9764C19.0658 11.945 19.0512 11.9112 19.0431 11.8703L20.2653 11.8703C20.2395 11.8761 20.2107 11.8789 20.1775 11.8783C20.17 11.8782 20.1393 11.7925 20.1064 11.823C20.0533 11.8727 19.95 11.8945 19.9354 12.0009C19.9312 12.0327 20.0328 12.1421 19.9256 12.1059C19.9032 12.0984 19.7901 11.9574 19.8536 12.1155C19.8641 12.1419 19.9356 12.3702 19.8082 12.3095C19.7746 12.2935 19.6505 12.2118 19.6458 12.2504C19.6455 12.256 19.7116 12.3026 19.7 12.3263C19.6581 12.4089 19.5896 12.4693 19.5453 12.5529C19.5336 12.5753 19.6149 12.6098 19.5957 12.6413C19.5428 12.728 19.4444 12.8019 19.3608 12.8528C19.3299 12.8715 19.2996 12.8037 19.2927 12.8001C19.181 12.7416 19.2767 12.879 19.2739 12.896C19.2546 13 19.1572 12.9912 19.1172 13.0634C19.106 13.0832 19.1702 13.129 19.172 13.1373C19.188 13.2196 19.1146 13.0929 19.0845 13.1023C18.9999 13.1283 18.9434 13.1974 18.8952 13.2633C18.8775 13.2876 18.9625 13.3295 18.9459 13.3506C18.849 13.4763 18.7313 13.5888 18.592 13.664C18.5656 13.678 18.5302 13.6139 18.5151 13.6066C18.4102 13.5554 18.473 13.7107 18.4733 13.7314C18.4752 13.8259 18.4159 13.7989 18.3854 13.8482C18.2369 14.0897 17.9769 14.3063 17.7823 14.4764C17.5289 14.6982 17.3041 14.8404 17.0956 15.0871C17.0823 15.1027 17.1601 15.1555 17.1494 15.1698C17.009 15.3518 16.8306 15.4884 16.6929 15.6739C16.6814 15.689 16.7603 15.7336 16.744 15.76C16.711 15.8146 16.6543 15.8679 16.5923 15.8928C16.5622 15.905 16.5383 15.8203 16.5091 15.8337C16.4409 15.8649 16.3843 15.9159 16.3439 15.9794C16.3268 16.0066 16.4208 16.0381 16.3938 16.0683C16.2112 16.2754 16.0365 16.4837 15.7657 16.6013C15.7472 16.6094 15.6101 16.4881 15.6064 16.5433C15.6392 16.5825 15.6803 16.626 15.7166 16.6665C15.4619 16.9799 15.1465 17.2227 14.8642 17.5083C14.8523 17.5204 14.9389 17.5698 14.9163 17.5935C14.7851 17.7308 14.6772 17.8847 14.4779 17.9559C14.4582 17.9631 14.3479 17.8315 14.3267 17.8917C14.3231 17.9024 14.28 17.9813 14.2903 18.0244C14.2921 18.0307 14.3574 18.0774 14.3401 18.0992C14.2386 18.2247 14.1111 18.3337 13.9681 18.4147C13.9449 18.4277 13.9056 18.3458 13.8885 18.3545C13.7683 18.4167 13.7153 18.567 13.5771 18.6017C13.4843 18.6246 13.4049 18.4952 13.2756 18.4223C13.2573 18.412 13.2197 18.4473 13.1603 18.388C13.0107 18.2391 12.8693 18.0523 12.7079 17.8957C12.6731 17.8619 12.6615 17.9504 12.6092 17.8351C12.6058 17.8273 12.6135 17.7625 12.5947 17.7245C12.5818 17.6982 12.5126 17.6472 12.5005 17.6088C12.4884 17.5704 12.5507 17.6086 12.5423 17.5572C12.5335 17.5056 12.4581 17.4441 12.4901 17.3934ZM18.1987 15.6505C18.2862 15.6766 18.0859 15.4538 18.1009 15.5421C18.1018 15.5466 18.1944 15.6493 18.1987 15.6505ZM14.424 19.7314C14.5555 19.7837 14.4507 19.6126 14.3519 19.5692C14.2531 19.5259 14.384 19.7156 14.424 19.7314ZM14.3616 19.3995C14.3384 19.5264 14.6366 19.2255 14.5263 19.2333C14.52 19.2336 14.3629 19.3922 14.3616 19.3995ZM13.3882 18.2426C13.3851 18.2402 13.357 18.2644 13.3591 18.2679C13.4106 18.3515 13.4668 18.303 13.3882 18.2426ZM13.8664 19.026C13.8421 19.0837 13.9307 19.0814 13.9609 19.0096C13.9852 18.9519 13.8966 18.9542 13.8664 19.026ZM20.0589 14.1384C20.0625 14.1411 20.0835 14.1247 20.0658 14.1067C20.009 14.0489 19.9993 14.0926 20.0589 14.1384ZM13.1436 18.2649C13.239 18.3895 13.0633 18.7131 12.9747 18.5613C12.9586 18.5338 13.0964 18.528 13.0914 18.4766C13.082 18.3828 12.8988 18.5086 12.9298 18.3698C12.9355 18.3445 13.1387 18.2572 13.1441 18.2647C13.1439 18.2648 13.1438 18.2648 13.1436 18.2649ZM18.463 15.8929C18.4664 15.8951 18.4942 15.871 18.4921 15.8675C18.4407 15.7838 18.3846 15.8324 18.463 15.8929ZM21.2501 13.1417C21.2573 13.1464 21.3213 13.0898 21.3179 13.0821C21.2421 12.9366 21.1123 13.0505 21.2501 13.1417ZM16.9123 17.86C16.9502 17.9589 16.9249 18.0021 16.8207 17.9381C16.8525 17.9136 16.8807 17.885 16.9123 17.86Z" fill="#FF7F65"/>
</svg>
